<svg width="40" height="40" viewBox="0 0 40 40" fill="none" xmlns="http://www.w3.org/2000/svg">
<rect width="40" height="40" rx="20" fill="url(#paint0_linear_1001_663)"/>
<path fill-rule="evenodd" clip-rule="evenodd" d="M12.4251 22.1355C12.165 22.7603 12.0196 23.427 11.9961 24.1035C12.032 24.5206 12.1743 24.9217 12.4093 25.2682C12.8517 25.7803 13.3836 26.2075 13.9791 26.529L17.8251 29.0895C18.2983 29.4661 18.8305 29.7621 19.4001 29.9655C19.7699 30.0535 20.1553 30.0535 20.5251 29.9655C21.0985 29.7645 21.6349 29.4706 22.1128 29.0955L26.0001 26.5335C26.6017 26.2111 27.1396 25.7821 27.5878 25.2675C27.8246 24.919 27.9667 24.5151 28.0003 24.0952C27.9748 23.4132 27.8256 22.7416 27.5601 22.113L24.1603 11.4135C24.0845 11.0669 23.9473 10.7368 23.7553 10.4385C23.6155 10.2686 23.4349 10.137 23.2303 10.056C22.8886 9.96329 22.533 9.9323 22.1803 9.96445H17.7538C17.4011 9.93238 17.0454 9.96414 16.7038 10.0582C16.4988 10.139 16.318 10.2713 16.1788 10.4422C15.9877 10.7405 15.8518 11.0708 15.7776 11.4172L12.4251 22.1355ZM22.3551 12.2355C22.5132 12.4869 22.6252 12.7645 22.6858 13.0552L25.6048 22.6432C24.5085 22.0745 23.3316 21.6767 22.1151 21.4635L20.2183 15.0435C20.2067 15.0055 20.1861 14.971 20.1583 14.9426C20.1306 14.9143 20.0964 14.893 20.0587 14.8806C20.0211 14.8682 19.9809 14.865 19.9418 14.8713C19.9026 14.8776 19.8655 14.8931 19.8336 14.9167C19.7908 14.948 19.7594 14.9926 19.7443 15.0435L17.8693 21.4612C16.6471 21.674 15.4648 22.0734 14.3638 22.6455L17.2948 13.0575C17.3549 12.7662 17.4672 12.4882 17.6263 12.237C17.7424 12.0945 17.8926 11.9836 18.0628 11.9145C18.3497 11.8369 18.6482 11.8115 18.9441 11.8395H21.0388C21.335 11.8115 21.6337 11.8369 21.9208 11.9145C22.0916 11.9838 22.2421 12.0952 22.3581 12.2385L22.3551 12.2355ZM20.0953 23.7952C20.998 23.8475 21.8931 23.6045 22.6453 23.103C22.7309 23.3721 22.7612 23.6558 22.7345 23.937C22.7078 24.2182 22.6247 24.4911 22.4901 24.7395C22.2134 25.2098 21.8118 25.5942 21.3298 25.8502C20.8243 26.1712 20.3893 26.4502 20.3893 27.1905C20.3887 27.4279 20.4423 27.6624 20.5461 27.876C20.2052 27.7344 19.9139 27.495 19.709 27.1879C19.5041 26.8809 19.3948 26.5201 19.3948 26.151V26.1052C19.3948 25.593 19.3948 24.9622 18.6733 24.9622C18.5728 24.9621 18.4731 24.9818 18.3801 25.02C18.1928 25.0975 18.044 25.2461 17.9661 25.4332C17.9274 25.5262 17.9073 25.6258 17.9068 25.7265C17.4123 25.1864 17.1467 24.4755 17.1658 23.7435C17.1623 23.4266 17.2066 23.1111 17.2971 22.8075C17.5971 23.3752 18.7371 23.7975 20.0953 23.7975V23.7952Z" fill="black"/>
<defs>
<linearGradient id="paint0_linear_1001_663" x1="0" y1="0" x2="40" y2="40" gradientUnits="userSpaceOnUse">
<stop stop-color="#FFEDD5"/>
<stop offset="1" stop-color="#FDBA74"/>
</linearGradient>
</defs>
</svg>
