<svg width="40" height="40" viewBox="0 0 40 40" fill="none" xmlns="http://www.w3.org/2000/svg">
<rect width="40" height="40" rx="20" fill="url(#paint0_linear_1001_673)"/>
<path d="M16.5 10C15.7044 10 14.9413 10.3161 14.3787 10.8787C13.8161 11.4413 13.5 12.2044 13.5 13C13.5 13.7956 13.8161 14.5587 14.3787 15.1213C14.9413 15.6839 15.7044 16 16.5 16H23.5C24.2957 16 25.0587 15.6839 25.6213 15.1213C26.1839 14.5587 26.5 13.7956 26.5 13C26.5 12.2044 26.1839 11.4413 25.6213 10.8787C25.0587 10.3161 24.2957 10 23.5 10H16.5ZM23.5 17C22.7044 17 21.9413 17.3161 21.3787 17.8787C20.8161 18.4413 20.5 19.2044 20.5 20C20.5 20.7956 20.8161 21.5587 21.3787 22.1213C21.9413 22.6839 22.7044 23 23.5 23C24.2957 23 25.0587 22.6839 25.6213 22.1213C26.1839 21.5587 26.5 20.7956 26.5 20C26.5 19.2044 26.1839 18.4413 25.6213 17.8787C25.0587 17.3161 24.2957 17 23.5 17ZM13.5 20C13.5 19.2044 13.8161 18.4413 14.3787 17.8787C14.9413 17.3161 15.7044 17 16.5 17H19.5V23H16.5C15.7044 23 14.9413 22.6839 14.3787 22.1213C13.8161 21.5587 13.5 20.7956 13.5 20ZM16.5 24C15.9067 24 15.3266 24.1759 14.8333 24.5056C14.3399 24.8352 13.9554 25.3038 13.7284 25.8519C13.5013 26.4001 13.4419 27.0033 13.5576 27.5853C13.6734 28.1672 13.9591 28.7018 14.3787 29.1213C14.7982 29.5409 15.3328 29.8266 15.9147 29.9424C16.4967 30.0581 17.0999 29.9987 17.6481 29.7716C18.1962 29.5446 18.6648 29.1601 18.9944 28.6667C19.3241 28.1734 19.5 27.5933 19.5 27V24H16.5Z" fill="black"/>
<defs>
<linearGradient id="paint0_linear_1001_673" x1="0" y1="0" x2="40" y2="40" gradientUnits="userSpaceOnUse">
<stop stop-color="#F3E8FF"/>
<stop offset="1" stop-color="#E9D5FF"/>
</linearGradient>
</defs>
</svg>
