<svg width="48" height="48" viewBox="0 0 48 48" fill="none" xmlns="http://www.w3.org/2000/svg">
<rect width="48" height="48" rx="12" fill="#FDEEED"/>
<g clip-path="url(#clip0_552_356)">
<path d="M13.6364 33H17.4545V23.7273L12 19.6364V31.3636C12 32.2691 12.7336 33 13.6364 33Z" fill="#4285F4"/>
<path d="M30.5454 33H34.3636C35.269 33 36 32.2664 36 31.3636V19.6364L30.5454 23.7273" fill="#34A853"/>
<path d="M30.5454 16.6364V23.7273L36 19.6364V17.4545C36 15.4309 33.69 14.2773 32.0727 15.4909" fill="#FBBC04"/>
<path d="M17.4546 23.7273V16.6364L24 21.5454L30.5455 16.6364V23.7273L24 28.6364" fill="#EA4335"/>
<path d="M12 17.4545V19.6364L17.4545 23.7273V16.6364L15.9273 15.4909C14.3073 14.2773 12 15.4309 12 17.4545" fill="#C5221F"/>
</g>
<defs>
<clipPath id="clip0_552_356">
<rect width="24" height="18" fill="white" transform="translate(12 15)"/>
</clipPath>
</defs>
</svg>
