<svg width="127" height="40" viewBox="0 0 127 40" fill="none" xmlns="http://www.w3.org/2000/svg">
<rect width="127" height="40" rx="20" fill="url(#paint0_linear_552_359)"/>
<path d="M34.6995 13.8519L32.0589 26.305C31.8595 27.1838 31.3401 27.4025 30.602 26.9888L26.5782 24.0238L24.637 25.8913C24.422 26.1063 24.2426 26.2856 23.8282 26.2856L24.1176 22.1881L31.5745 15.45C31.8989 15.1613 31.5039 15.0006 31.0707 15.29L21.852 21.095L17.8832 19.8525C17.0201 19.5831 17.0045 18.9894 18.0632 18.575L33.5864 12.5944C34.3051 12.325 34.9339 12.7544 34.6995 13.8525V13.8519Z" fill="black"/>
<path d="M61.456 14.8V26H60.32V17.04L55.92 24.576H55.36L50.96 17.088V26H49.824V14.8H50.8L55.664 23.104L60.48 14.8H61.456ZM67.8093 17.52C68.9079 17.52 69.7506 17.7973 70.3373 18.352C70.9239 18.896 71.2173 19.7067 71.2173 20.784V26H70.1293V24.688C69.8733 25.1253 69.4946 25.4667 68.9933 25.712C68.5026 25.9573 67.9159 26.08 67.2333 26.08C66.2946 26.08 65.5479 25.856 64.9933 25.408C64.4386 24.96 64.1613 24.368 64.1613 23.632C64.1613 22.9173 64.4173 22.3413 64.9293 21.904C65.4519 21.4667 66.2786 21.248 67.4093 21.248H70.0813V20.736C70.0813 20.0107 69.8786 19.4613 69.4733 19.088C69.0679 18.704 68.4759 18.512 67.6973 18.512C67.1639 18.512 66.6519 18.6027 66.1613 18.784C65.6706 18.9547 65.2493 19.1947 64.8973 19.504L64.3853 18.656C64.8119 18.2933 65.3239 18.016 65.9213 17.824C66.5186 17.6213 67.1479 17.52 67.8093 17.52ZM67.4093 25.184C68.0493 25.184 68.5986 25.04 69.0573 24.752C69.5159 24.4533 69.8573 24.0267 70.0813 23.472V22.096H67.4413C66.0013 22.096 65.2812 22.5973 65.2812 23.6C65.2812 24.0907 65.4679 24.48 65.8413 24.768C66.2146 25.0453 66.7373 25.184 67.4093 25.184ZM74.3028 17.584H75.4388V26H74.3028V17.584ZM74.8788 15.744C74.6441 15.744 74.4468 15.664 74.2868 15.504C74.1268 15.344 74.0468 15.152 74.0468 14.928C74.0468 14.7147 74.1268 14.528 74.2868 14.368C74.4468 14.208 74.6441 14.128 74.8788 14.128C75.1134 14.128 75.3108 14.208 75.4708 14.368C75.6308 14.5173 75.7108 14.6987 75.7108 14.912C75.7108 15.1467 75.6308 15.344 75.4708 15.504C75.3108 15.664 75.1134 15.744 74.8788 15.744ZM78.5996 14.128H79.7356V26H78.5996V14.128ZM98.956 14.8V26H97.82V17.04L93.42 24.576H92.86L88.46 17.088V26H87.324V14.8H88.3L93.164 23.104L97.98 14.8H98.956ZM109.693 22.144H102.653C102.717 23.0187 103.053 23.728 103.661 24.272C104.269 24.8053 105.037 25.072 105.965 25.072C106.488 25.072 106.968 24.9813 107.405 24.8C107.843 24.608 108.221 24.3307 108.541 23.968L109.181 24.704C108.808 25.152 108.339 25.4933 107.773 25.728C107.219 25.9627 106.605 26.08 105.933 26.08C105.069 26.08 104.301 25.8987 103.629 25.536C102.968 25.1627 102.451 24.6507 102.077 24C101.704 23.3493 101.517 22.6133 101.517 21.792C101.517 20.9707 101.693 20.2347 102.045 19.584C102.408 18.9333 102.899 18.4267 103.517 18.064C104.147 17.7013 104.851 17.52 105.629 17.52C106.408 17.52 107.107 17.7013 107.725 18.064C108.344 18.4267 108.829 18.9333 109.181 19.584C109.533 20.224 109.709 20.96 109.709 21.792L109.693 22.144ZM105.629 18.496C104.819 18.496 104.136 18.7573 103.581 19.28C103.037 19.792 102.728 20.464 102.653 21.296H108.621C108.547 20.464 108.232 19.792 107.677 19.28C107.133 18.7573 106.451 18.496 105.629 18.496Z" fill="black"/>
<defs>
<linearGradient id="paint0_linear_552_359" x1="0" y1="0" x2="127" y2="40" gradientUnits="userSpaceOnUse">
<stop stop-color="#FDB59B"/>
<stop offset="1" stop-color="#F9D5C8"/>
<stop offset="1" stop-color="#FEC3C3"/>
</linearGradient>
</defs>
</svg>
