<svg width="147" height="48" viewBox="0 0 147 48" fill="none" xmlns="http://www.w3.org/2000/svg">
<rect width="147" height="48" rx="24" fill="#FDEEED"/>
<rect x="16" y="12" width="24" height="24" rx="4" fill="#888888"/>
<path d="M73.456 18.8V30H72.32V21.04L67.92 28.576H67.36L62.96 21.088V30H61.824V18.8H62.8L67.664 27.104L72.48 18.8H73.456ZM79.8093 21.52C80.9079 21.52 81.7506 21.7973 82.3373 22.352C82.9239 22.896 83.2173 23.7067 83.2173 24.784V30H82.1293V28.688C81.8733 29.1253 81.4946 29.4667 80.9933 29.712C80.5026 29.9573 79.9159 30.08 79.2333 30.08C78.2946 30.08 77.5479 29.856 76.9933 29.408C76.4386 28.96 76.1613 28.368 76.1613 27.632C76.1613 26.9173 76.4173 26.3413 76.9293 25.904C77.4519 25.4667 78.2786 25.248 79.4093 25.248H82.0813V24.736C82.0813 24.0107 81.8786 23.4613 81.4733 23.088C81.0679 22.704 80.4759 22.512 79.6973 22.512C79.1639 22.512 78.6519 22.6027 78.1613 22.784C77.6706 22.9547 77.2493 23.1947 76.8973 23.504L76.3853 22.656C76.8119 22.2933 77.3239 22.016 77.9213 21.824C78.5186 21.6213 79.1479 21.52 79.8093 21.52ZM79.4093 29.184C80.0493 29.184 80.5986 29.04 81.0573 28.752C81.5159 28.4533 81.8573 28.0267 82.0813 27.472V26.096H79.4413C78.0013 26.096 77.2812 26.5973 77.2812 27.6C77.2812 28.0907 77.4679 28.48 77.8413 28.768C78.2146 29.0453 78.7373 29.184 79.4093 29.184ZM86.3028 21.584H87.4388V30H86.3028V21.584ZM86.8788 19.744C86.6441 19.744 86.4468 19.664 86.2868 19.504C86.1268 19.344 86.0468 19.152 86.0468 18.928C86.0468 18.7147 86.1268 18.528 86.2868 18.368C86.4468 18.208 86.6441 18.128 86.8788 18.128C87.1134 18.128 87.3108 18.208 87.4708 18.368C87.6308 18.5173 87.7108 18.6987 87.7108 18.912C87.7108 19.1467 87.6308 19.344 87.4708 19.504C87.3108 19.664 87.1134 19.744 86.8788 19.744ZM90.5996 18.128H91.7356V30H90.5996V18.128ZM110.956 18.8V30H109.82V21.04L105.42 28.576H104.86L100.46 21.088V30H99.324V18.8H100.3L105.164 27.104L109.98 18.8H110.956ZM121.693 26.144H114.653C114.717 27.0187 115.053 27.728 115.661 28.272C116.269 28.8053 117.037 29.072 117.965 29.072C118.488 29.072 118.968 28.9813 119.405 28.8C119.843 28.608 120.221 28.3307 120.541 27.968L121.181 28.704C120.808 29.152 120.339 29.4933 119.773 29.728C119.219 29.9627 118.605 30.08 117.933 30.08C117.069 30.08 116.301 29.8987 115.629 29.536C114.968 29.1627 114.451 28.6507 114.077 28C113.704 27.3493 113.517 26.6133 113.517 25.792C113.517 24.9707 113.693 24.2347 114.045 23.584C114.408 22.9333 114.899 22.4267 115.517 22.064C116.147 21.7013 116.851 21.52 117.629 21.52C118.408 21.52 119.107 21.7013 119.725 22.064C120.344 22.4267 120.829 22.9333 121.181 23.584C121.533 24.224 121.709 24.96 121.709 25.792L121.693 26.144ZM117.629 22.496C116.819 22.496 116.136 22.7573 115.581 23.28C115.037 23.792 114.728 24.464 114.653 25.296H120.621C120.547 24.464 120.232 23.792 119.677 23.28C119.133 22.7573 118.451 22.496 117.629 22.496Z" fill="black"/>
</svg>
