<svg width="127" height="40" viewBox="0 0 127 40" fill="none" xmlns="http://www.w3.org/2000/svg">
<rect width="127" height="40" rx="20" fill="url(#paint0_linear_552_359)"/>
<path d="M34.6995 13.8519L32.0589 26.305C31.8595 27.1838 31.3401 27.4025 30.602 26.9888L26.5782 24.0238L24.637 25.8913C24.422 26.1063 24.2426 26.2856 23.8282 26.2856L24.1176 22.1881L31.5745 15.45C31.8989 15.1613 31.5039 15.0006 31.0707 15.29L21.852 21.095L17.8832 19.8525C17.0201 19.5831 17.0045 18.9894 18.0632 18.575L33.5864 12.5944C34.3051 12.325 34.9339 12.7544 34.6995 13.8525V13.8519Z" fill="black"/>
<path d="M49.824 26V14.8H50.8L55.92 23.536H55.408L60.48 14.8H61.456V26H60.32V16.576H60.592L55.92 24.576H55.36L50.656 16.576H50.96V26H49.824ZM70.1293 26V24.144L70.0813 23.84V20.736C70.0813 20.0213 69.8786 19.472 69.4733 19.088C69.0786 18.704 68.4866 18.512 67.6973 18.512C67.1533 18.512 66.6359 18.6027 66.1453 18.784C65.6546 18.9653 65.2386 19.2053 64.8973 19.504L64.3853 18.656C64.8119 18.2933 65.3239 18.016 65.9213 17.824C66.5186 17.6213 67.1479 17.52 67.8093 17.52C68.8973 17.52 69.7346 17.792 70.3213 18.336C70.9186 18.8693 71.2173 19.6853 71.2173 20.784V26H70.1293ZM67.2333 26.08C66.6039 26.08 66.0546 25.9787 65.5853 25.776C65.1266 25.5627 64.7746 25.2747 64.5293 24.912C64.2839 24.5387 64.1613 24.112 64.1613 23.632C64.1613 23.1947 64.2626 22.8 64.4653 22.448C64.6786 22.0853 65.0199 21.7973 65.4893 21.584C65.9693 21.36 66.6093 21.248 67.4093 21.248H70.3053V22.096H67.4413C66.6306 22.096 66.0653 22.24 65.7453 22.528C65.4359 22.816 65.2812 23.1733 65.2812 23.6C65.2812 24.08 65.4679 24.464 65.8413 24.752C66.2146 25.04 66.7373 25.184 67.4093 25.184C68.0493 25.184 68.5986 25.04 69.0573 24.752C69.5266 24.4533 69.8679 24.0267 70.0813 23.472L70.3373 24.256C70.1239 24.8107 69.7506 25.2533 69.2173 25.584C68.6946 25.9147 68.0333 26.08 67.2333 26.08ZM74.3028 26V17.6H75.4388V26H74.3028ZM74.8788 15.744C74.6441 15.744 74.4468 15.664 74.2868 15.504C74.1268 15.344 74.0468 15.152 74.0468 14.928C74.0468 14.704 74.1268 14.5173 74.2868 14.368C74.4468 14.208 74.6441 14.128 74.8788 14.128C75.1134 14.128 75.3108 14.2027 75.4708 14.352C75.6308 14.5013 75.7108 14.688 75.7108 14.912C75.7108 15.1467 75.6308 15.344 75.4708 15.504C75.3214 15.664 75.1241 15.744 74.8788 15.744ZM78.5996 26V14.128H79.7356V26H78.5996ZM87.324 26V14.8H88.3L93.42 23.536H92.908L97.98 14.8H98.956V26H97.82V16.576H98.092L93.42 24.576H92.86L88.156 16.576H88.46V26H87.324ZM105.933 26.08C105.059 26.08 104.291 25.8987 103.629 25.536C102.968 25.1627 102.451 24.656 102.077 24.016C101.704 23.3653 101.517 22.624 101.517 21.792C101.517 20.96 101.693 20.224 102.045 19.584C102.408 18.944 102.899 18.4427 103.517 18.08C104.147 17.7067 104.851 17.52 105.629 17.52C106.419 17.52 107.117 17.7013 107.725 18.064C108.344 18.416 108.829 18.9173 109.181 19.568C109.533 20.208 109.709 20.9493 109.709 21.792C109.709 21.8453 109.704 21.904 109.693 21.968C109.693 22.0213 109.693 22.08 109.693 22.144H102.381V21.296H109.085L108.637 21.632C108.637 21.024 108.504 20.4853 108.237 20.016C107.981 19.536 107.629 19.1627 107.181 18.896C106.733 18.6293 106.216 18.496 105.629 18.496C105.053 18.496 104.536 18.6293 104.077 18.896C103.619 19.1627 103.261 19.536 103.005 20.016C102.749 20.496 102.621 21.0453 102.621 21.664V21.84C102.621 22.48 102.76 23.0453 103.037 23.536C103.325 24.016 103.72 24.3947 104.221 24.672C104.733 24.9387 105.315 25.072 105.965 25.072C106.477 25.072 106.952 24.9813 107.389 24.8C107.837 24.6187 108.221 24.3413 108.541 23.968L109.181 24.704C108.808 25.152 108.339 25.4933 107.773 25.728C107.219 25.9627 106.605 26.08 105.933 26.08Z" fill="black"/>
<defs>
<linearGradient id="paint0_linear_552_359" x1="0" y1="0" x2="127" y2="40" gradientUnits="userSpaceOnUse">
<stop stop-color="#F9C8C8"/>
<stop offset="1" stop-color="#F9B79F"/>
</linearGradient>
</defs>
</svg>
