<svg width="64" height="64" viewBox="0 0 64 64" fill="none" xmlns="http://www.w3.org/2000/svg">
<rect width="64" height="64" rx="12" fill="#FDEEED"/>
<g clip-path="url(#clip0_552_356)">
<path d="M14.7273 47H21.0909V31.5455L12 24.7273V44.2727C12 45.7818 13.2227 47 14.7273 47Z" fill="#4285F4"/>
<path d="M42.9092 47H49.2728C50.7819 47 52.0001 45.7773 52.0001 44.2727V24.7273L42.9092 31.5455" fill="#34A853"/>
<path d="M42.9092 19.7273V31.5454L52.0001 24.7273V21.0909C52.0001 17.7182 48.1501 15.7954 45.4546 17.8182" fill="#FBBC04"/>
<path d="M21.0908 31.5455V19.7273L31.9999 27.9091L42.909 19.7273V31.5455L31.9999 39.7273" fill="#EA4335"/>
<path d="M12 21.0909V24.7273L21.0909 31.5454V19.7273L18.5455 17.8182C15.8455 15.7954 12 17.7182 12 21.0909" fill="#C5221F"/>
</g>
<defs>
<clipPath id="clip0_552_356">
<rect width="40" height="30" fill="white" transform="translate(12 17)"/>
</clipPath>
</defs>
</svg>
