<svg width="48" height="48" viewBox="0 0 48 48" fill="none" xmlns="http://www.w3.org/2000/svg">
<rect width="48" height="48" rx="24" fill="#FDEEED"/>
<g clip-path="url(#clip0_554_380)">
<path d="M15.3636 31.5H18.5455V23.7727L14 20.3636V30.1364C14 30.8909 14.6114 31.5 15.3636 31.5Z" fill="#4285F4"/>
<path d="M29.4546 31.5H32.6364C33.391 31.5 34 30.8886 34 30.1364V20.3636L29.4546 23.7727" fill="#34A853"/>
<path d="M29.4546 17.8637V23.7728L34 20.3637V18.5455C34 16.8591 32.075 15.8978 30.7273 16.9091" fill="#FBBC04"/>
<path d="M18.5454 23.7727V17.8636L24 21.9546L29.4545 17.8636V23.7727L24 27.8636" fill="#EA4335"/>
<path d="M14 18.5455V20.3637L18.5455 23.7728V17.8637L17.2727 16.9091C15.9227 15.8978 14 16.8591 14 18.5455" fill="#C5221F"/>
</g>
<defs>
<clipPath id="clip0_554_380">
<rect width="20" height="15" fill="white" transform="translate(14 16.5)"/>
</clipPath>
</defs>
</svg>
