<svg width="236" height="40" viewBox="0 0 236 40" fill="none" xmlns="http://www.w3.org/2000/svg">
<g clip-path="url(#clip0_1011_648)">
<path d="M0 20C0 8.95431 8.95431 0 20 0H216C227.046 0 236 8.95431 236 20V40H0V20Z" fill="#BFDBFE"/>
<path d="M0 20C0 8.95431 8.95431 0 20 0H40V40H0V20Z" fill="#BFDBFE"/>
<rect x="40" width="156" height="40" fill="#BFDBFE"/>
<path d="M196 0H216C227.046 0 236 8.95431 236 20V40H196V0Z" fill="#BFDBFE"/>
</g>
<defs>
<clipPath id="clip0_1011_648">
<path d="M0 20C0 8.95431 8.95431 0 20 0H216C227.046 0 236 8.95431 236 20V40H0V20Z" fill="white"/>
</clipPath>
</defs>
</svg>
