<svg width="100%" height="320" viewBox="0 0 1280 320" preserveAspectRatio="xMaxYMid meet" fill="none" xmlns="http://www.w3.org/2000/svg">
  <rect width="100%" height="100%" rx="12" fill="url(#paint0_linear_550_332)"/>
  <path d="M138 119V175H125.04V152.04H99.6V175H86.64V119H99.6V141.08H125.04V119H138ZM150.369 131.96H162.849V175H150.369V131.96ZM156.609 125.96C154.316 125.96 152.449 125.293 151.009 123.96C149.569 122.627 148.849 120.973 148.849 119C148.849 117.027 149.569 115.373 151.009 114.04C152.449 112.707 154.316 112.04 156.609 112.04C158.903 112.04 160.769 112.68 162.209 113.96C163.649 115.24 164.369 116.84 164.369 118.76C164.369 120.84 163.649 122.573 162.209 123.96C160.769 125.293 158.903 125.96 156.609 125.96ZM179.232 160.12C181.472 160.12 183.312 160.84 184.752 162.28C186.192 163.667 186.912 165.507 186.912 167.8C186.912 168.867 186.779 169.933 186.512 171C186.245 172.067 185.659 173.667 184.752 175.8L180.192 187.32H172.272L175.792 174.6C174.459 174.067 173.392 173.213 172.592 172.04C171.845 170.813 171.472 169.4 171.472 167.8C171.472 165.507 172.192 163.667 173.632 162.28C175.125 160.84 176.992 160.12 179.232 160.12ZM218.906 119H231.866V175H218.906V119ZM242.436 119H253.076L252.196 141.72H243.236L242.436 119ZM317.833 131.32C323.22 131.32 327.486 132.92 330.633 136.12C333.833 139.267 335.433 144.013 335.433 150.36V175H322.953V152.28C322.953 148.867 322.233 146.333 320.793 144.68C319.406 142.973 317.406 142.12 314.793 142.12C311.86 142.12 309.54 143.08 307.833 145C306.126 146.867 305.273 149.667 305.273 153.4V175H292.793V152.28C292.793 145.507 290.073 142.12 284.633 142.12C281.753 142.12 279.46 143.08 277.753 145C276.046 146.867 275.193 149.667 275.193 153.4V175H262.713V131.96H274.633V136.92C276.233 135.107 278.18 133.72 280.473 132.76C282.82 131.8 285.38 131.32 288.153 131.32C291.193 131.32 293.94 131.933 296.393 133.16C298.846 134.333 300.82 136.067 302.313 138.36C304.073 136.12 306.286 134.387 308.953 133.16C311.673 131.933 314.633 131.32 317.833 131.32ZM421.516 119V175H410.876L382.956 141V175H370.156V119H380.876L408.716 153V119H421.516ZM451.245 131.32C457.912 131.32 463.032 132.92 466.605 136.12C470.178 139.267 471.965 144.04 471.965 150.44V175H460.285V169.64C457.938 173.64 453.565 175.64 447.165 175.64C443.858 175.64 440.978 175.08 438.525 173.96C436.125 172.84 434.285 171.293 433.005 169.32C431.725 167.347 431.085 165.107 431.085 162.6C431.085 158.6 432.578 155.453 435.565 153.16C438.605 150.867 443.272 149.72 449.565 149.72H459.485C459.485 147 458.658 144.92 457.005 143.48C455.352 141.987 452.872 141.24 449.565 141.24C447.272 141.24 445.005 141.613 442.765 142.36C440.578 143.053 438.712 144.013 437.165 145.24L432.685 136.52C435.032 134.867 437.832 133.587 441.085 132.68C444.392 131.773 447.778 131.32 451.245 131.32ZM450.285 167.24C452.418 167.24 454.312 166.76 455.965 165.8C457.618 164.787 458.792 163.32 459.485 161.4V157H450.925C445.805 157 443.245 158.68 443.245 162.04C443.245 163.64 443.858 164.92 445.085 165.88C446.365 166.787 448.098 167.24 450.285 167.24ZM518.7 165.4V175H480.3V167.48L502.22 141.56H480.86V131.96H517.98V139.48L496.06 165.4H518.7ZM544.058 131.32C550.724 131.32 555.844 132.92 559.418 136.12C562.991 139.267 564.778 144.04 564.778 150.44V175H553.098V169.64C550.751 173.64 546.378 175.64 539.978 175.64C536.671 175.64 533.791 175.08 531.338 173.96C528.938 172.84 527.098 171.293 525.818 169.32C524.538 167.347 523.898 165.107 523.898 162.6C523.898 158.6 525.391 155.453 528.378 153.16C531.418 150.867 536.084 149.72 542.378 149.72H552.298C552.298 147 551.471 144.92 549.818 143.48C548.164 141.987 545.684 141.24 542.378 141.24C540.084 141.24 537.818 141.613 535.578 142.36C533.391 143.053 531.524 144.013 529.978 145.24L525.498 136.52C527.844 134.867 530.644 133.587 533.898 132.68C537.204 131.773 540.591 131.32 544.058 131.32ZM543.098 167.24C545.231 167.24 547.124 166.76 548.778 165.8C550.431 164.787 551.604 163.32 552.298 161.4V157H543.738C538.618 157 536.058 158.68 536.058 162.04C536.058 163.64 536.671 164.92 537.898 165.88C539.178 166.787 540.911 167.24 543.098 167.24ZM587.993 137.64C589.486 135.56 591.486 133.987 593.993 132.92C596.553 131.853 599.486 131.32 602.793 131.32V142.84C601.406 142.733 600.473 142.68 599.993 142.68C596.419 142.68 593.619 143.693 591.593 145.72C589.566 147.693 588.553 150.68 588.553 154.68V175H576.073V131.96H587.993V137.64Z" fill="black"/>
  <path d="M85.92 239.16C84.704 239.16 83.5627 238.883 82.496 238.328C81.4507 237.752 80.608 236.963 79.968 235.96L80.96 234.872C81.5787 235.789 82.304 236.493 83.136 236.984C83.9893 237.453 84.9173 237.688 85.92 237.688C87.4133 237.688 88.5227 237.261 89.248 236.408C89.9947 235.533 90.368 234.2 90.368 232.408V218.072H82.112V216.6H92V232.408C92 234.648 91.488 236.333 90.464 237.464C89.44 238.595 87.9253 239.16 85.92 239.16ZM98.6375 239.128C98.2748 239.128 97.9548 239 97.6775 238.744C97.4215 238.467 97.2935 238.136 97.2935 237.752C97.2935 237.368 97.4215 237.048 97.6775 236.792C97.9548 236.536 98.2748 236.408 98.6375 236.408C99.0002 236.408 99.3095 236.536 99.5655 236.792C99.8428 237.048 99.9815 237.368 99.9815 237.752C99.9815 238.136 99.8428 238.467 99.5655 238.744C99.3095 239 99.0002 239.128 98.6375 239.128ZM115.599 218.072V227.64H127.535V229.112H115.599V239H113.967V216.6H128.943V218.072H115.599ZM134.866 225.944C135.378 224.728 136.178 223.8 137.266 223.16C138.354 222.499 139.676 222.168 141.234 222.168V223.736L140.85 223.704C138.994 223.704 137.543 224.291 136.498 225.464C135.452 226.616 134.93 228.227 134.93 230.296V239H133.33V222.296H134.866V225.944ZM152.014 239.128C150.435 239.128 149.006 238.765 147.726 238.04C146.467 237.315 145.475 236.312 144.75 235.032C144.024 233.731 143.662 232.269 143.662 230.648C143.662 229.027 144.024 227.576 144.75 226.296C145.475 224.995 146.467 223.981 147.726 223.256C149.006 222.531 150.435 222.168 152.014 222.168C153.592 222.168 155.011 222.531 156.27 223.256C157.55 223.981 158.552 224.995 159.278 226.296C160.003 227.576 160.366 229.027 160.366 230.648C160.366 232.269 160.003 233.731 159.278 235.032C158.552 236.312 157.55 237.315 156.27 238.04C155.011 238.765 153.592 239.128 152.014 239.128ZM152.014 237.688C153.294 237.688 154.435 237.389 155.438 236.792C156.462 236.195 157.262 235.363 157.838 234.296C158.435 233.229 158.734 232.013 158.734 230.648C158.734 229.283 158.435 228.067 157.838 227C157.262 225.933 156.462 225.101 155.438 224.504C154.435 223.907 153.294 223.608 152.014 223.608C150.734 223.608 149.582 223.907 148.558 224.504C147.555 225.101 146.755 225.933 146.158 227C145.582 228.067 145.294 229.283 145.294 230.648C145.294 232.013 145.582 233.229 146.158 234.296C146.755 235.363 147.555 236.195 148.558 236.792C149.582 237.389 150.734 237.688 152.014 237.688ZM173.49 222.168C175.58 222.168 177.234 222.776 178.45 223.992C179.666 225.208 180.274 226.957 180.274 229.24V239H178.674V229.368C178.674 227.491 178.194 226.061 177.234 225.08C176.295 224.099 174.972 223.608 173.266 223.608C171.303 223.608 169.756 224.195 168.626 225.368C167.495 226.541 166.93 228.12 166.93 230.104V239H165.33V222.296H166.866V225.912C167.442 224.739 168.295 223.821 169.426 223.16C170.578 222.499 171.932 222.168 173.49 222.168ZM195.149 237.944C194.743 238.328 194.231 238.627 193.613 238.84C193.015 239.032 192.386 239.128 191.725 239.128C190.274 239.128 189.154 238.733 188.365 237.944C187.575 237.133 187.181 236.013 187.181 234.584V223.672H184.109V222.296H187.181V218.648H188.781V222.296H194.093V223.672H188.781V234.424C188.781 235.512 189.037 236.344 189.549 236.92C190.082 237.475 190.861 237.752 191.885 237.752C192.93 237.752 193.794 237.443 194.477 236.824L195.149 237.944ZM197.89 229.688H206.114V231.128H197.89V229.688ZM227.454 237.528V239H211.998V216.6H226.974V218.072H213.63V226.904H225.566V228.344H213.63V237.528H227.454ZM241.052 222.168C243.143 222.168 244.796 222.776 246.012 223.992C247.228 225.208 247.836 226.957 247.836 229.24V239H246.236V229.368C246.236 227.491 245.756 226.061 244.796 225.08C243.857 224.099 242.535 223.608 240.828 223.608C238.865 223.608 237.319 224.195 236.188 225.368C235.057 226.541 234.492 228.12 234.492 230.104V239H232.892V222.296H234.428V225.912C235.004 224.739 235.857 223.821 236.988 223.16C238.14 222.499 239.495 222.168 241.052 222.168ZM269.303 215.256V239H267.735V235.064C267.073 236.365 266.145 237.368 264.951 238.072C263.756 238.776 262.401 239.128 260.887 239.128C259.329 239.128 257.921 238.765 256.663 238.04C255.404 237.315 254.412 236.312 253.687 235.032C252.983 233.752 252.631 232.291 252.631 230.648C252.631 229.005 252.983 227.544 253.687 226.264C254.412 224.963 255.404 223.96 256.663 223.256C257.921 222.531 259.329 222.168 260.887 222.168C262.38 222.168 263.713 222.52 264.887 223.224C266.081 223.928 267.02 224.909 267.703 226.168V215.256H269.303ZM260.983 237.688C262.263 237.688 263.404 237.389 264.407 236.792C265.431 236.195 266.231 235.363 266.807 234.296C267.404 233.229 267.703 232.013 267.703 230.648C267.703 229.283 267.404 228.067 266.807 227C266.231 225.933 265.431 225.101 264.407 224.504C263.404 223.907 262.263 223.608 260.983 223.608C259.703 223.608 258.551 223.907 257.527 224.504C256.524 225.101 255.724 225.933 255.127 227C254.551 228.067 254.263 229.283 254.263 230.648C254.263 232.013 254.551 233.229 255.127 234.296C255.724 235.363 256.524 236.195 257.527 236.792C258.551 237.389 259.703 237.688 260.983 237.688ZM284.779 216.6H293.643C295.968 216.6 298.027 217.08 299.819 218.04C301.632 219 303.04 220.333 304.043 222.04C305.046 223.725 305.547 225.645 305.547 227.8C305.547 229.955 305.046 231.885 304.043 233.592C303.04 235.277 301.632 236.6 299.819 237.56C298.027 238.52 295.968 239 293.643 239H284.779V216.6ZM293.515 237.528C295.584 237.528 297.408 237.123 298.987 236.312C300.566 235.48 301.782 234.328 302.635 232.856C303.488 231.384 303.915 229.699 303.915 227.8C303.915 225.901 303.488 224.216 302.635 222.744C301.782 221.272 300.566 220.131 298.987 219.32C297.408 218.488 295.584 218.072 293.515 218.072H286.411V237.528H293.515ZM324.817 231.032H310.449C310.491 232.333 310.822 233.496 311.441 234.52C312.059 235.523 312.891 236.301 313.937 236.856C315.003 237.411 316.198 237.688 317.521 237.688C318.609 237.688 319.611 237.496 320.529 237.112C321.467 236.707 322.246 236.12 322.865 235.352L323.793 236.408C323.067 237.283 322.15 237.955 321.041 238.424C319.953 238.893 318.769 239.128 317.489 239.128C315.825 239.128 314.342 238.765 313.041 238.04C311.739 237.315 310.715 236.312 309.969 235.032C309.243 233.752 308.881 232.291 308.881 230.648C308.881 229.027 309.222 227.576 309.905 226.296C310.609 224.995 311.569 223.981 312.785 223.256C314.001 222.531 315.366 222.168 316.881 222.168C318.395 222.168 319.75 222.531 320.945 223.256C322.161 223.96 323.11 224.952 323.793 226.232C324.497 227.512 324.849 228.963 324.849 230.584L324.817 231.032ZM316.881 223.576C315.707 223.576 314.651 223.843 313.713 224.376C312.774 224.888 312.017 225.624 311.441 226.584C310.886 227.523 310.566 228.589 310.481 229.784H323.281C323.217 228.589 322.897 227.523 322.321 226.584C321.745 225.645 320.987 224.909 320.049 224.376C319.11 223.843 318.054 223.576 316.881 223.576ZM342.894 222.296L335.342 239H333.71L326.19 222.296H327.886L334.542 237.24L341.262 222.296H342.894ZM360.035 231.032H345.667C345.71 232.333 346.041 233.496 346.659 234.52C347.278 235.523 348.11 236.301 349.155 236.856C350.222 237.411 351.417 237.688 352.739 237.688C353.827 237.688 354.83 237.496 355.747 237.112C356.686 236.707 357.465 236.12 358.083 235.352L359.011 236.408C358.286 237.283 357.369 237.955 356.259 238.424C355.171 238.893 353.987 239.128 352.707 239.128C351.043 239.128 349.561 238.765 348.259 238.04C346.958 237.315 345.934 236.312 345.187 235.032C344.462 233.752 344.099 232.291 344.099 230.648C344.099 229.027 344.441 227.576 345.123 226.296C345.827 224.995 346.787 223.981 348.003 223.256C349.219 222.531 350.585 222.168 352.099 222.168C353.614 222.168 354.969 222.531 356.163 223.256C357.379 223.96 358.329 224.952 359.011 226.232C359.715 227.512 360.067 228.963 360.067 230.584L360.035 231.032ZM352.099 223.576C350.926 223.576 349.87 223.843 348.931 224.376C347.993 224.888 347.235 225.624 346.659 226.584C346.105 227.523 345.785 228.589 345.699 229.784H358.499C358.435 228.589 358.115 227.523 357.539 226.584C356.963 225.645 356.206 224.909 355.267 224.376C354.329 223.843 353.273 223.576 352.099 223.576ZM365.017 215.256H366.617V239H365.017V215.256ZM379.889 239.128C378.31 239.128 376.881 238.765 375.601 238.04C374.342 237.315 373.35 236.312 372.625 235.032C371.899 233.731 371.537 232.269 371.537 230.648C371.537 229.027 371.899 227.576 372.625 226.296C373.35 224.995 374.342 223.981 375.601 223.256C376.881 222.531 378.31 222.168 379.889 222.168C381.467 222.168 382.886 222.531 384.145 223.256C385.425 223.981 386.427 224.995 387.153 226.296C387.878 227.576 388.241 229.027 388.241 230.648C388.241 232.269 387.878 233.731 387.153 235.032C386.427 236.312 385.425 237.315 384.145 238.04C382.886 238.765 381.467 239.128 379.889 239.128ZM379.889 237.688C381.169 237.688 382.31 237.389 383.313 236.792C384.337 236.195 385.137 235.363 385.713 234.296C386.31 233.229 386.609 232.013 386.609 230.648C386.609 229.283 386.31 228.067 385.713 227C385.137 225.933 384.337 225.101 383.313 224.504C382.31 223.907 381.169 223.608 379.889 223.608C378.609 223.608 377.457 223.907 376.433 224.504C375.43 225.101 374.63 225.933 374.033 227C373.457 228.067 373.169 229.283 373.169 230.648C373.169 232.013 373.457 233.229 374.033 234.296C374.63 235.363 375.43 236.195 376.433 236.792C377.457 237.389 378.609 237.688 379.889 237.688ZM401.589 222.168C403.146 222.168 404.554 222.531 405.812 223.256C407.071 223.981 408.053 224.984 408.757 226.264C409.482 227.544 409.845 229.005 409.845 230.648C409.845 232.291 409.482 233.763 408.757 235.064C408.053 236.344 407.071 237.347 405.812 238.072C404.554 238.776 403.146 239.128 401.589 239.128C400.117 239.128 398.783 238.787 397.589 238.104C396.394 237.4 395.466 236.429 394.805 235.192V245.208H393.205V222.296H394.741V226.232C395.402 224.952 396.33 223.96 397.525 223.256C398.741 222.531 400.095 222.168 401.589 222.168ZM401.493 237.688C402.773 237.688 403.925 237.389 404.949 236.792C405.973 236.195 406.773 235.363 407.349 234.296C407.946 233.229 408.245 232.013 408.245 230.648C408.245 229.283 407.946 228.067 407.349 227C406.773 225.933 405.973 225.101 404.949 224.504C403.925 223.907 402.773 223.608 401.493 223.608C400.213 223.608 399.061 223.907 398.036 224.504C397.034 225.101 396.234 225.933 395.637 227C395.061 228.067 394.773 229.283 394.773 230.648C394.773 232.013 395.061 233.229 395.637 234.296C396.234 235.363 397.034 236.195 398.036 236.792C399.061 237.389 400.213 237.688 401.493 237.688ZM428.91 231.032H414.542C414.585 232.333 414.916 233.496 415.534 234.52C416.153 235.523 416.985 236.301 418.03 236.856C419.097 237.411 420.292 237.688 421.614 237.688C422.702 237.688 423.705 237.496 424.622 237.112C425.561 236.707 426.34 236.12 426.958 235.352L427.886 236.408C427.161 237.283 426.244 237.955 425.134 238.424C424.046 238.893 422.862 239.128 421.582 239.128C419.918 239.128 418.436 238.765 417.134 238.04C415.833 237.315 414.809 236.312 414.062 235.032C413.337 233.752 412.974 232.291 412.974 230.648C412.974 229.027 413.316 227.576 413.998 226.296C414.702 224.995 415.662 223.981 416.878 223.256C418.094 222.531 419.46 222.168 420.974 222.168C422.489 222.168 423.844 222.531 425.038 223.256C426.254 223.96 427.204 224.952 427.886 226.232C428.59 227.512 428.942 228.963 428.942 230.584L428.91 231.032ZM420.974 223.576C419.801 223.576 418.745 223.843 417.806 224.376C416.868 224.888 416.11 225.624 415.534 226.584C414.98 227.523 414.66 228.589 414.574 229.784H427.374C427.31 228.589 426.99 227.523 426.414 226.584C425.838 225.645 425.081 224.909 424.142 224.376C423.204 223.843 422.148 223.576 420.974 223.576ZM435.428 225.944C435.94 224.728 436.74 223.8 437.828 223.16C438.916 222.499 440.239 222.168 441.796 222.168V223.736L441.412 223.704C439.556 223.704 438.105 224.291 437.06 225.464C436.015 226.616 435.492 228.227 435.492 230.296V239H433.892V222.296H435.428V225.944Z" fill="black"/>
  <defs>
    <linearGradient id="paint0_linear_550_332" x1="0" y1="0" x2="100%" y2="100%" gradientUnits="userSpaceOnUse">
      <stop stop-color="#9BC2FD"/>
      <stop offset="0.734375" stop-color="#EEF7FB"/>
      <stop offset="1" stop-color="#C6E9FB"/>
    </linearGradient>
  </defs>
</svg>
