<svg width="40" height="40" viewBox="0 0 40 40" fill="none" xmlns="http://www.w3.org/2000/svg">
<rect width="40" height="40" rx="20" fill="url(#paint0_linear_1001_647)"/>
<path d="M22.0803 22.775C22.313 23.2467 22.674 23.6431 23.1219 23.9188C23.5698 24.1945 24.0864 24.3382 24.6123 24.3335C25.6758 24.3335 26.3553 23.8017 26.3553 23.0675C26.3553 22.1877 25.6571 21.8757 24.4871 21.3635L23.8451 21.0882C21.9933 20.2992 20.7626 19.3107 20.7626 17.2212C20.7626 15.296 22.2296 13.8312 24.5216 13.8312C25.2654 13.7773 26.0087 13.9438 26.6585 14.3099C27.3083 14.6761 27.8357 15.2257 28.1748 15.89L26.1761 17.1732C26.0452 16.8441 25.8172 16.5625 25.5225 16.366C25.2278 16.1694 24.8802 16.0673 24.5261 16.073C24.3717 16.0575 24.2157 16.0743 24.0682 16.1223C23.9207 16.1704 23.7848 16.2487 23.6692 16.3522C23.5536 16.4558 23.4609 16.5822 23.3969 16.7236C23.3329 16.8649 23.2991 17.0181 23.2976 17.1732C23.2976 17.9435 23.7746 18.2547 24.8726 18.7317L25.5146 19.0062C27.6956 19.9415 28.9263 20.8947 28.9263 23.0382C28.9263 25.349 27.1113 26.615 24.6731 26.615C23.7233 26.6754 22.7764 26.4597 21.9465 25.9939C21.1166 25.5281 20.4392 24.8322 19.9961 23.99L22.0803 22.775ZM13.0143 23C13.4178 23.7155 13.7846 24.32 14.6643 24.32C15.5073 24.32 16.0398 23.99 16.0398 22.7075V13.9812H18.6063V22.7435C18.6063 25.4007 17.0478 26.6105 14.7738 26.6105C13.9705 26.654 13.1729 26.4533 12.4859 26.0348C11.7989 25.6163 11.2547 24.9997 10.9248 24.266L13.0143 23Z" fill="black"/>
<defs>
<linearGradient id="paint0_linear_1001_647" x1="0" y1="0" x2="40" y2="40" gradientUnits="userSpaceOnUse">
<stop stop-color="#FEF9C3"/>
<stop offset="1" stop-color="#FDE047"/>
</linearGradient>
</defs>
</svg>
