<svg width="134" height="40" viewBox="0 0 134 40" fill="none" xmlns="http://www.w3.org/2000/svg">
<rect width="134" height="40" rx="20" fill="url(#paint0_linear_552_368)"/>
<g clip-path="url(#clip0_552_368)">
<path d="M18.201 29H13.8473V14.9795H18.201V29ZM16.0215 13.067C14.6295 13.067 13.5 11.9135 13.5 10.5215C13.5 9.85276 13.7657 9.2114 14.2385 8.73853C14.7114 8.26566 15.3528 8 16.0215 8C16.6902 8 17.3316 8.26566 17.8045 8.73853C18.2773 9.2114 18.543 9.85276 18.543 10.5215C18.543 11.9135 17.4135 13.067 16.0215 13.067ZM34.4955 29H30.1515V22.175C30.1515 20.5482 30.1185 18.4625 27.888 18.4625C25.6245 18.4625 25.2772 20.2295 25.2772 22.058V29H20.928V14.9795H25.1033V16.892H25.164C25.7453 15.7902 27.165 14.6277 29.283 14.6277C33.6893 14.6277 34.4993 17.5295 34.4993 21.2983V29H34.4955Z" fill="black"/>
</g>
<path d="M49.824 14.8H51.008V24.976H57.28V26H49.824V14.8ZM59.0059 17.584H60.1419V26H59.0059V17.584ZM59.5819 15.744C59.3472 15.744 59.1499 15.664 58.9899 15.504C58.8299 15.344 58.7499 15.152 58.7499 14.928C58.7499 14.7147 58.8299 14.528 58.9899 14.368C59.1499 14.208 59.3472 14.128 59.5819 14.128C59.8165 14.128 60.0139 14.208 60.1739 14.368C60.3339 14.5173 60.4139 14.6987 60.4139 14.912C60.4139 15.1467 60.3339 15.344 60.1739 15.504C60.0139 15.664 59.8165 15.744 59.5819 15.744ZM67.5908 17.52C68.6468 17.52 69.4841 17.8293 70.1028 18.448C70.7321 19.056 71.0468 19.9467 71.0468 21.12V26H69.9108V21.232C69.9108 20.3573 69.6921 19.6907 69.2548 19.232C68.8174 18.7733 68.1934 18.544 67.3828 18.544C66.4761 18.544 65.7561 18.816 65.2228 19.36C64.7001 19.8933 64.4388 20.6347 64.4388 21.584V26H63.3028V17.584H64.3908V19.136C64.7001 18.624 65.1268 18.2293 65.6708 17.952C66.2254 17.664 66.8654 17.52 67.5908 17.52ZM77.2509 21.776L75.2669 23.6V26H74.1309V14.128H75.2669V22.176L80.2909 17.584H81.6989L78.0989 21.024L82.0349 26H80.6429L77.2509 21.776ZM90.7245 22.144H83.6845C83.7485 23.0187 84.0845 23.728 84.6925 24.272C85.3005 24.8053 86.0685 25.072 86.9965 25.072C87.5192 25.072 87.9992 24.9813 88.4365 24.8C88.8738 24.608 89.2525 24.3307 89.5725 23.968L90.2125 24.704C89.8392 25.152 89.3698 25.4933 88.8045 25.728C88.2498 25.9627 87.6365 26.08 86.9645 26.08C86.1005 26.08 85.3325 25.8987 84.6605 25.536C83.9992 25.1627 83.4818 24.6507 83.1085 24C82.7352 23.3493 82.5485 22.6133 82.5485 21.792C82.5485 20.9707 82.7245 20.2347 83.0765 19.584C83.4392 18.9333 83.9298 18.4267 84.5485 18.064C85.1778 17.7013 85.8818 17.52 86.6605 17.52C87.4392 17.52 88.1378 17.7013 88.7565 18.064C89.3752 18.4267 89.8605 18.9333 90.2125 19.584C90.5645 20.224 90.7405 20.96 90.7405 21.792L90.7245 22.144ZM86.6605 18.496C85.8498 18.496 85.1672 18.7573 84.6125 19.28C84.0685 19.792 83.7592 20.464 83.6845 21.296H89.6525C89.5778 20.464 89.2632 19.792 88.7085 19.28C88.1645 18.7573 87.4818 18.496 86.6605 18.496ZM100.733 14.128V26H99.6448V24.336C99.3034 24.9013 98.8501 25.3333 98.2848 25.632C97.7301 25.9307 97.1008 26.08 96.3968 26.08C95.6074 26.08 94.8928 25.8987 94.2528 25.536C93.6128 25.1733 93.1114 24.6667 92.7488 24.016C92.3861 23.3653 92.2048 22.624 92.2048 21.792C92.2048 20.96 92.3861 20.2187 92.7488 19.568C93.1114 18.9173 93.6128 18.416 94.2528 18.064C94.8928 17.7013 95.6074 17.52 96.3968 17.52C97.0794 17.52 97.6928 17.664 98.2368 17.952C98.7914 18.2293 99.2448 18.64 99.5968 19.184V14.128H100.733ZM96.4928 25.072C97.0794 25.072 97.6074 24.9387 98.0768 24.672C98.5568 24.3947 98.9301 24.0053 99.1968 23.504C99.4741 23.0027 99.6128 22.432 99.6128 21.792C99.6128 21.152 99.4741 20.5813 99.1968 20.08C98.9301 19.5787 98.5568 19.1947 98.0768 18.928C97.6074 18.6507 97.0794 18.512 96.4928 18.512C95.8954 18.512 95.3568 18.6507 94.8768 18.928C94.4074 19.1947 94.0341 19.5787 93.7568 20.08C93.4901 20.5813 93.3568 21.152 93.3568 21.792C93.3568 22.432 93.4901 23.0027 93.7568 23.504C94.0341 24.0053 94.4074 24.3947 94.8768 24.672C95.3568 24.9387 95.8954 25.072 96.4928 25.072ZM104.137 14.8H105.321V26H104.137V14.8ZM113.013 17.52C114.069 17.52 114.906 17.8293 115.525 18.448C116.154 19.056 116.469 19.9467 116.469 21.12V26H115.333V21.232C115.333 20.3573 115.114 19.6907 114.677 19.232C114.239 18.7733 113.615 18.544 112.805 18.544C111.898 18.544 111.178 18.816 110.645 19.36C110.122 19.8933 109.861 20.6347 109.861 21.584V26H108.725V17.584H109.813V19.136C110.122 18.624 110.549 18.2293 111.093 17.952C111.647 17.664 112.287 17.52 113.013 17.52Z" fill="black"/>
<defs>
<linearGradient id="paint0_linear_552_368" x1="0" y1="0" x2="134" y2="40" gradientUnits="userSpaceOnUse">
<stop stop-color="#C5E0FC"/>
<stop offset="1" stop-color="#ECF5FE"/>
</linearGradient>
<clipPath id="clip0_552_368">
<rect width="24" height="24" fill="white" transform="translate(12 8)"/>
</clipPath>
</defs>
</svg>
