<svg width="48" height="48" viewBox="0 0 48 48" fill="none" xmlns="http://www.w3.org/2000/svg">
<rect width="48" height="48" rx="24" fill="#ECF5FE"/>
<path d="M29.8573 33.9829H33.9983L34 26.6669C34 23.0754 33.2262 20.3147 29.0291 20.3147C28.2416 20.2854 27.461 20.4703 26.7703 20.8497C26.0796 21.229 25.5047 21.7886 25.1068 22.4689H25.0512V20.6464H21.0759V33.9825H25.2168V27.3852C25.2168 25.6455 25.5468 23.9606 27.7036 23.9606C29.8297 23.9606 29.8573 25.9513 29.8573 27.4977V33.9829Z" fill="#0A66C2"/>
<path d="M15.0683 18.4187C15.4636 18.6827 15.9282 18.8235 16.4035 18.8234C16.7191 18.8234 17.0315 18.7612 17.3231 18.6403C17.6146 18.5195 17.8795 18.3424 18.1026 18.1193C18.3257 17.8961 18.5026 17.6311 18.6234 17.3395C18.7441 17.0479 18.8062 16.7354 18.8061 16.4199C18.806 15.9446 18.665 15.48 18.4009 15.0848C18.1368 14.6897 17.7614 14.3817 17.3223 14.1999C16.8831 14.0181 16.3999 13.9706 15.9338 14.0634C15.4677 14.1562 15.0395 14.3852 14.7035 14.7213C14.3675 15.0575 14.1387 15.4857 14.0461 15.9519C13.9535 16.4181 14.0011 16.9012 14.1831 17.3403C14.365 17.7794 14.6731 18.1547 15.0683 18.4187Z" fill="#0A66C2"/>
<path d="M14.3287 33.9829H18.474V20.6464H14.3287V33.9829Z" fill="#0A66C2"/>
</svg>
