<svg width="64" height="64" viewBox="0 0 64 64" fill="none" xmlns="http://www.w3.org/2000/svg">
<rect width="64" height="64" rx="12" fill="#ECF5FE"/>
<path d="M41.7862 48.8992H48.8983L48.9012 36.3341C48.9012 30.1656 47.5721 25.424 40.3637 25.424C39.0112 25.3738 37.6705 25.6914 36.4842 26.343C35.2979 26.9945 34.3105 27.9556 33.6272 29.1239H33.5317V25.9938H26.7041V48.8985H33.8162V37.5676C33.8162 34.5797 34.3829 31.6859 38.0871 31.6859C41.7387 31.6859 41.7862 35.105 41.7862 37.761V48.8992Z" fill="#0A66C2"/>
<path d="M16.3861 22.1677C17.065 22.6211 17.863 22.863 18.6793 22.8629C19.2212 22.8628 19.7579 22.7559 20.2586 22.5484C20.7593 22.3409 21.2143 22.0368 21.5974 21.6535C21.9806 21.2701 22.2845 20.8151 22.4919 20.3143C22.6992 19.8135 22.8058 19.2768 22.8057 18.7347C22.8056 17.9184 22.5634 17.1205 22.1098 16.4418C21.6561 15.7631 21.0115 15.2342 20.2573 14.922C19.503 14.6097 18.6732 14.5281 17.8726 14.6875C17.072 14.8469 16.3367 15.2402 15.7596 15.8175C15.1825 16.3948 14.7895 17.1303 14.6304 17.931C14.4713 18.7317 14.5532 19.5615 14.8657 20.3156C15.1782 21.0698 15.7073 21.7143 16.3861 22.1677Z" fill="#0A66C2"/>
<path d="M15.1158 48.8992H22.2353V25.9938H15.1158V48.8992Z" fill="#0A66C2"/>
</svg>
