<svg width="40" height="40" viewBox="0 0 40 40" fill="none" xmlns="http://www.w3.org/2000/svg">
<rect width="40" height="40" rx="20" fill="#C5E0FC"/>
<path d="M25.8573 29.9829H29.9983L30 22.6669C30 19.0754 29.2262 16.3147 25.0291 16.3147C24.2416 16.2854 23.461 16.4703 22.7703 16.8497C22.0796 17.229 21.5047 17.7886 21.1068 18.4689H21.0512V16.6464H17.0759V29.9825H21.2168V23.3852C21.2168 21.6455 21.5468 19.9606 23.7036 19.9606C25.8297 19.9606 25.8573 21.9513 25.8573 23.4977V29.9829Z" fill="black"/>
<path d="M11.0683 14.4187C11.4636 14.6827 11.9282 14.8235 12.4035 14.8234C12.7191 14.8234 13.0315 14.7612 13.3231 14.6403C13.6146 14.5195 13.8795 14.3424 14.1026 14.1193C14.3257 13.8961 14.5026 13.6311 14.6234 13.3395C14.7441 13.0479 14.8062 12.7354 14.8061 12.4199C14.806 11.9446 14.665 11.48 14.4009 11.0848C14.1368 10.6897 13.7614 10.3817 13.3223 10.1999C12.8831 10.0181 12.3999 9.9706 11.9338 10.0634C11.4677 10.1562 11.0395 10.3852 10.7035 10.7213C10.3675 11.0575 10.1387 11.4857 10.0461 11.9519C9.95345 12.4181 10.0011 12.9012 10.1831 13.3403C10.365 13.7794 10.6731 14.1547 11.0683 14.4187Z" fill="black"/>
<path d="M10.3287 29.9829H14.474V16.6464H10.3287V29.9829Z" fill="black"/>
</svg>
