<svg width="134" height="40" viewBox="0 0 134 40" fill="none" xmlns="http://www.w3.org/2000/svg">
<rect width="134" height="40" rx="20" fill="url(#paint0_linear_552_368)"/>
<g clip-path="url(#clip0_552_368)">
<path d="M21.1675 27.5H17.5394V15.8162H21.1675V27.5ZM19.3512 14.2225C18.1912 14.2225 17.25 13.2613 17.25 12.1012C17.25 11.544 17.4714 11.0095 17.8654 10.6154C18.2595 10.2214 18.794 10 19.3512 10C19.9085 10 20.443 10.2214 20.8371 10.6154C21.2311 11.0095 21.4525 11.544 21.4525 12.1012C21.4525 13.2613 20.5112 14.2225 19.3512 14.2225ZM34.7462 27.5H31.1262V21.8125C31.1262 20.4569 31.0987 18.7188 29.24 18.7188C27.3537 18.7188 27.0644 20.1912 27.0644 21.715V27.5H23.44V15.8162H26.9194V17.41H26.97C27.4544 16.4919 28.6375 15.5231 30.4025 15.5231C34.0744 15.5231 34.7494 17.9413 34.7494 21.0819V27.5H34.7462Z" fill="black"/>
</g>
<path d="M49.824 26V14.8H51.008V24.976H57.28V26H49.824ZM59.0059 26V17.6H60.1419V26H59.0059ZM59.5819 15.744C59.3472 15.744 59.1499 15.664 58.9899 15.504C58.8299 15.344 58.7499 15.152 58.7499 14.928C58.7499 14.704 58.8299 14.5173 58.9899 14.368C59.1499 14.208 59.3472 14.128 59.5819 14.128C59.8165 14.128 60.0139 14.2027 60.1739 14.352C60.3339 14.5013 60.4139 14.688 60.4139 14.912C60.4139 15.1467 60.3339 15.344 60.1739 15.504C60.0245 15.664 59.8272 15.744 59.5819 15.744ZM67.5908 17.52C68.2734 17.52 68.8708 17.6533 69.3828 17.92C69.9054 18.176 70.3108 18.5707 70.5988 19.104C70.8974 19.6373 71.0468 20.3093 71.0468 21.12V26H69.9108V21.232C69.9108 20.3467 69.6868 19.68 69.2388 19.232C68.8014 18.7733 68.1828 18.544 67.3828 18.544C66.7854 18.544 66.2628 18.6667 65.8148 18.912C65.3774 19.1467 65.0361 19.4933 64.7908 19.952C64.5561 20.4 64.4388 20.944 64.4388 21.584V26H63.3028V17.6H64.3908V19.904L64.2148 19.472C64.4814 18.864 64.9081 18.3893 65.4948 18.048C66.0814 17.696 66.7801 17.52 67.5908 17.52ZM75.0113 23.824L75.0433 22.368L80.2753 17.6H81.6673L77.9713 21.136L77.3313 21.68L75.0113 23.824ZM74.1153 26V14.128H75.2513V26H74.1153ZM80.6273 26L77.1233 21.632L77.8593 20.752L82.0193 26H80.6273ZM86.9645 26.08C86.0898 26.08 85.3218 25.8987 84.6605 25.536C83.9992 25.1627 83.4818 24.656 83.1085 24.016C82.7352 23.3653 82.5485 22.624 82.5485 21.792C82.5485 20.96 82.7245 20.224 83.0765 19.584C83.4392 18.944 83.9298 18.4427 84.5485 18.08C85.1778 17.7067 85.8818 17.52 86.6605 17.52C87.4498 17.52 88.1485 17.7013 88.7565 18.064C89.3752 18.416 89.8605 18.9173 90.2125 19.568C90.5645 20.208 90.7405 20.9493 90.7405 21.792C90.7405 21.8453 90.7352 21.904 90.7245 21.968C90.7245 22.0213 90.7245 22.08 90.7245 22.144H83.4125V21.296H90.1165L89.6685 21.632C89.6685 21.024 89.5352 20.4853 89.2685 20.016C89.0125 19.536 88.6605 19.1627 88.2125 18.896C87.7645 18.6293 87.2472 18.496 86.6605 18.496C86.0845 18.496 85.5672 18.6293 85.1085 18.896C84.6498 19.1627 84.2925 19.536 84.0365 20.016C83.7805 20.496 83.6525 21.0453 83.6525 21.664V21.84C83.6525 22.48 83.7912 23.0453 84.0685 23.536C84.3565 24.016 84.7512 24.3947 85.2525 24.672C85.7645 24.9387 86.3458 25.072 86.9965 25.072C87.5085 25.072 87.9832 24.9813 88.4205 24.8C88.8685 24.6187 89.2525 24.3413 89.5725 23.968L90.2125 24.704C89.8392 25.152 89.3698 25.4933 88.8045 25.728C88.2498 25.9627 87.6365 26.08 86.9645 26.08ZM96.3968 26.08C95.5968 26.08 94.8768 25.8987 94.2368 25.536C93.6074 25.1733 93.1114 24.672 92.7488 24.032C92.3861 23.3813 92.2048 22.6347 92.2048 21.792C92.2048 20.9387 92.3861 20.192 92.7488 19.552C93.1114 18.912 93.6074 18.416 94.2368 18.064C94.8768 17.7013 95.5968 17.52 96.3968 17.52C97.1328 17.52 97.7888 17.6853 98.3648 18.016C98.9514 18.3467 99.4154 18.832 99.7568 19.472C100.109 20.1013 100.285 20.8747 100.285 21.792C100.285 22.6987 100.114 23.472 99.7728 24.112C99.4314 24.752 98.9674 25.2427 98.3808 25.584C97.8048 25.9147 97.1434 26.08 96.3968 26.08ZM96.4768 25.072C97.0741 25.072 97.6074 24.9387 98.0768 24.672C98.5568 24.3947 98.9301 24.0107 99.1968 23.52C99.4741 23.0187 99.6128 22.4427 99.6128 21.792C99.6128 21.1307 99.4741 20.5547 99.1968 20.064C98.9301 19.5733 98.5568 19.1947 98.0768 18.928C97.6074 18.6507 97.0741 18.512 96.4768 18.512C95.8901 18.512 95.3621 18.6507 94.8928 18.928C94.4234 19.1947 94.0501 19.5733 93.7728 20.064C93.4954 20.5547 93.3568 21.1307 93.3568 21.792C93.3568 22.4427 93.4954 23.0187 93.7728 23.52C94.0501 24.0107 94.4234 24.3947 94.8928 24.672C95.3621 24.9387 95.8901 25.072 96.4768 25.072ZM99.6448 26V23.472L99.7568 21.776L99.5968 20.08V14.128H100.733V26H99.6448ZM104.137 26V14.8H105.321V26H104.137ZM113.013 17.52C113.695 17.52 114.293 17.6533 114.805 17.92C115.327 18.176 115.733 18.5707 116.021 19.104C116.319 19.6373 116.469 20.3093 116.469 21.12V26H115.333V21.232C115.333 20.3467 115.109 19.68 114.661 19.232C114.223 18.7733 113.605 18.544 112.805 18.544C112.207 18.544 111.685 18.6667 111.237 18.912C110.799 19.1467 110.458 19.4933 110.213 19.952C109.978 20.4 109.861 20.944 109.861 21.584V26H108.725V17.6H109.813V19.904L109.637 19.472C109.903 18.864 110.33 18.3893 110.917 18.048C111.503 17.696 112.202 17.52 113.013 17.52Z" fill="black"/>
<defs>
<linearGradient id="paint0_linear_552_368" x1="0" y1="0" x2="134" y2="40" gradientUnits="userSpaceOnUse">
<stop stop-color="#C5E9FB"/>
<stop offset="1" stop-color="#9FC3F9"/>
</linearGradient>
<clipPath id="clip0_552_368">
<rect width="20" height="20" fill="white" transform="translate(16 10)"/>
</clipPath>
</defs>
</svg>
