<svg width="154" height="48" viewBox="0 0 154 48" fill="none" xmlns="http://www.w3.org/2000/svg">
<rect width="154" height="48" rx="24" fill="#ECF5FE"/>
<rect x="16" y="12" width="24" height="24" rx="4" fill="#888888"/>
<path d="M61.824 18.8H63.008V28.976H69.28V30H61.824V18.8ZM71.0059 21.584H72.1419V30H71.0059V21.584ZM71.5819 19.744C71.3472 19.744 71.1499 19.664 70.9899 19.504C70.8299 19.344 70.7499 19.152 70.7499 18.928C70.7499 18.7147 70.8299 18.528 70.9899 18.368C71.1499 18.208 71.3472 18.128 71.5819 18.128C71.8165 18.128 72.0139 18.208 72.1739 18.368C72.3339 18.5173 72.4139 18.6987 72.4139 18.912C72.4139 19.1467 72.3339 19.344 72.1739 19.504C72.0139 19.664 71.8165 19.744 71.5819 19.744ZM79.5908 21.52C80.6468 21.52 81.4841 21.8293 82.1028 22.448C82.7321 23.056 83.0468 23.9467 83.0468 25.12V30H81.9108V25.232C81.9108 24.3573 81.6921 23.6907 81.2548 23.232C80.8174 22.7733 80.1934 22.544 79.3828 22.544C78.4761 22.544 77.7561 22.816 77.2228 23.36C76.7001 23.8933 76.4388 24.6347 76.4388 25.584V30H75.3028V21.584H76.3908V23.136C76.7001 22.624 77.1268 22.2293 77.6708 21.952C78.2254 21.664 78.8654 21.52 79.5908 21.52ZM89.2509 25.776L87.2669 27.6V30H86.1309V18.128H87.2669V26.176L92.2909 21.584H93.6989L90.0989 25.024L94.0349 30H92.6429L89.2509 25.776ZM102.725 26.144H95.6845C95.7485 27.0187 96.0845 27.728 96.6925 28.272C97.3005 28.8053 98.0685 29.072 98.9965 29.072C99.5192 29.072 99.9992 28.9813 100.437 28.8C100.874 28.608 101.253 28.3307 101.573 27.968L102.213 28.704C101.839 29.152 101.37 29.4933 100.805 29.728C100.25 29.9627 99.6365 30.08 98.9645 30.08C98.1005 30.08 97.3325 29.8987 96.6605 29.536C95.9992 29.1627 95.4818 28.6507 95.1085 28C94.7352 27.3493 94.5485 26.6133 94.5485 25.792C94.5485 24.9707 94.7245 24.2347 95.0765 23.584C95.4392 22.9333 95.9298 22.4267 96.5485 22.064C97.1778 21.7013 97.8818 21.52 98.6605 21.52C99.4392 21.52 100.138 21.7013 100.757 22.064C101.375 22.4267 101.861 22.9333 102.213 23.584C102.565 24.224 102.741 24.96 102.741 25.792L102.725 26.144ZM98.6605 22.496C97.8498 22.496 97.1672 22.7573 96.6125 23.28C96.0685 23.792 95.7592 24.464 95.6845 25.296H101.653C101.578 24.464 101.263 23.792 100.709 23.28C100.165 22.7573 99.4818 22.496 98.6605 22.496ZM112.733 18.128V30H111.645V28.336C111.303 28.9013 110.85 29.3333 110.285 29.632C109.73 29.9307 109.101 30.08 108.397 30.08C107.607 30.08 106.893 29.8987 106.253 29.536C105.613 29.1733 105.111 28.6667 104.749 28.016C104.386 27.3653 104.205 26.624 104.205 25.792C104.205 24.96 104.386 24.2187 104.749 23.568C105.111 22.9173 105.613 22.416 106.253 22.064C106.893 21.7013 107.607 21.52 108.397 21.52C109.079 21.52 109.693 21.664 110.237 21.952C110.791 22.2293 111.245 22.64 111.597 23.184V18.128H112.733ZM108.493 29.072C109.079 29.072 109.607 28.9387 110.077 28.672C110.557 28.3947 110.93 28.0053 111.197 27.504C111.474 27.0027 111.613 26.432 111.613 25.792C111.613 25.152 111.474 24.5813 111.197 24.08C110.93 23.5787 110.557 23.1947 110.077 22.928C109.607 22.6507 109.079 22.512 108.493 22.512C107.895 22.512 107.357 22.6507 106.877 22.928C106.407 23.1947 106.034 23.5787 105.757 24.08C105.49 24.5813 105.357 25.152 105.357 25.792C105.357 26.432 105.49 27.0027 105.757 27.504C106.034 28.0053 106.407 28.3947 106.877 28.672C107.357 28.9387 107.895 29.072 108.493 29.072ZM116.137 18.8H117.321V30H116.137V18.8ZM125.013 21.52C126.069 21.52 126.906 21.8293 127.525 22.448C128.154 23.056 128.469 23.9467 128.469 25.12V30H127.333V25.232C127.333 24.3573 127.114 23.6907 126.677 23.232C126.239 22.7733 125.615 22.544 124.805 22.544C123.898 22.544 123.178 22.816 122.645 23.36C122.122 23.8933 121.861 24.6347 121.861 25.584V30H120.725V21.584H121.813V23.136C122.122 22.624 122.549 22.2293 123.093 21.952C123.647 21.664 124.287 21.52 125.013 21.52Z" fill="black"/>
</svg>
