<svg width="48" height="48" viewBox="0 0 48 48" fill="none" xmlns="http://www.w3.org/2000/svg">
<rect width="48" height="48" rx="12" fill="#ECF5FE"/>
<path d="M31.0288 34.9589H35.9979L36 26.1797C36 21.8699 35.0714 18.557 30.0349 18.557C29.09 18.5219 28.1532 18.7438 27.3243 19.199C26.4955 19.6543 25.8056 20.3258 25.3282 21.1421H25.2614V18.9551H20.4911V34.9584H25.4602V27.0416C25.4602 24.954 25.8562 22.9321 28.4443 22.9321C30.9956 22.9321 31.0288 25.321 31.0288 27.1767V34.9589Z" fill="#0A66C2"/>
<path d="M13.282 16.2818C13.7563 16.5986 14.3138 16.7676 14.8842 16.7675C15.2629 16.7675 15.6378 16.6928 15.9877 16.5478C16.3375 16.4028 16.6554 16.1904 16.9231 15.9225C17.1908 15.6547 17.4032 15.3368 17.548 14.9869C17.6929 14.637 17.7674 14.2619 17.7673 13.8832C17.7672 13.3129 17.598 12.7554 17.2811 12.2812C16.9641 11.807 16.5137 11.4375 15.9867 11.2193C15.4598 11.0011 14.8799 10.9441 14.3206 11.0555C13.7612 11.1669 13.2475 11.4416 12.8442 11.845C12.441 12.2484 12.1665 12.7623 12.0553 13.3217C11.9441 13.8811 12.0014 14.4609 12.2197 14.9878C12.4381 15.5147 12.8077 15.965 13.282 16.2818Z" fill="#0A66C2"/>
<path d="M12.3944 34.9589H17.3688V18.9551H12.3944V34.9589Z" fill="#0A66C2"/>
</svg>
