<svg width="40" height="40" viewBox="0 0 40 40" fill="none" xmlns="http://www.w3.org/2000/svg">
<rect width="40" height="40" rx="20" fill="url(#paint0_linear_1041_644)"/>
<path d="M13.2129 12.9873C13.8849 13.5329 14.1361 13.4913 15.3985 13.4065L27.2913 12.6929C27.5441 12.6929 27.3345 12.4417 27.2497 12.4001L25.2737 10.9713C24.8961 10.6769 24.3921 10.3409 23.4257 10.4257L11.9089 11.2657C11.4897 11.3073 11.4049 11.5169 11.5729 11.6849L13.2129 12.9873ZM13.9265 15.7585V28.2721C13.9265 28.9441 14.2625 29.1969 15.0193 29.1553L28.0913 28.3985C28.8465 28.3569 28.9313 27.8945 28.9313 27.3489V14.9185C28.9313 14.3745 28.7217 14.0785 28.2593 14.1201L14.5985 14.9185C14.0945 14.9601 13.9265 15.2129 13.9265 15.7585ZM26.8305 16.4305C26.9137 16.8081 26.8305 17.1857 26.4513 17.2289L25.8209 17.3537V26.5921C25.2753 26.8865 24.7697 27.0561 24.3489 27.0561C23.6769 27.0561 23.5089 26.8449 23.0049 26.2145L18.8849 19.7473V26.0049L20.1889 26.2993C20.1889 26.2993 20.1889 27.0545 19.1377 27.0545L16.2385 27.2225C16.1537 27.0545 16.2385 26.6353 16.5329 26.5505L17.2881 26.3425V18.0673L16.2401 17.9841C16.1553 17.6065 16.3649 17.0609 16.9537 17.0177L20.0641 16.8097L24.3521 23.3601V17.5649L23.2593 17.4385C23.1745 16.9761 23.5105 16.6401 23.9313 16.5985L26.8321 16.4305H26.8305ZM10.9425 10.1313L22.9217 9.24972C24.3921 9.12172 24.7697 9.20812 25.6945 9.88012L29.5185 12.5681C30.1505 13.0289 30.3601 13.1553 30.3601 13.6593V28.3985C30.3601 29.3233 30.0241 29.8705 28.8465 29.9521L14.9361 30.7921C14.0529 30.8353 13.6321 30.7089 13.1697 30.1201L10.3537 26.4673C9.84974 25.7953 9.64014 25.2913 9.64014 24.7025V11.6001C9.64014 10.8449 9.97614 10.2145 10.9425 10.1313Z" fill="black"/>
<defs>
<linearGradient id="paint0_linear_1041_644" x1="0" y1="0" x2="40" y2="40" gradientUnits="userSpaceOnUse">
<stop stop-color="#F5F5F4"/>
<stop offset="1" stop-color="#E7E5E4"/>
</linearGradient>
</defs>
</svg>
