<svg width="40" height="40" viewBox="0 0 40 40" fill="none" xmlns="http://www.w3.org/2000/svg">
<rect width="40" height="40" rx="20" fill="url(#paint0_linear_1001_721)"/>
<path d="M20 21.8555C21.0355 21.8555 21.875 21.016 21.875 19.9805C21.875 18.9449 21.0355 18.1055 20 18.1055C18.9645 18.1055 18.125 18.9449 18.125 19.9805C18.125 21.016 18.9645 21.8555 20 21.8555Z" fill="black"/>
<path d="M20 24.2795C17.7464 24.334 15.4983 24.0302 13.34 23.3795C12.343 23.0634 11.4131 22.5655 10.5973 21.911C10.2859 21.6873 10.0267 21.399 9.83731 21.0658C9.64791 20.7326 9.53284 20.3623 9.5 19.9805C9.5 18.7407 10.862 17.5257 13.1435 16.7307C15.3595 16.0263 17.6749 15.6849 20 15.7197C22.294 15.6877 24.5784 16.0229 26.7665 16.7127C27.7267 17.0188 28.6251 17.4926 29.42 18.1122C29.726 18.3254 29.9813 18.6032 30.168 18.9261C30.3546 19.249 30.468 19.6089 30.5 19.9805C30.5 21.269 28.9775 22.5747 26.525 23.3862C24.4084 24.0157 22.2079 24.317 20 24.2795ZM20 16.6167C17.7756 16.587 15.5606 16.9115 13.4382 17.5782C11.3382 18.311 10.397 19.313 10.397 19.9782C10.397 20.6742 11.4088 21.7685 13.6302 22.5282C15.6951 23.1476 17.845 23.4359 20 23.3825C22.1123 23.4202 24.2179 23.1344 26.2438 22.535C28.55 21.7707 29.6 20.675 29.6 19.9805C29.5622 19.7421 29.4753 19.5142 29.3449 19.3112C29.2145 19.1081 29.0435 18.9343 28.8425 18.8007C28.1313 18.2511 27.3288 17.8311 26.4717 17.5602C24.3785 16.903 22.1937 16.5845 20 16.6167Z" fill="black"/>
<path d="M15.7402 29.3324C15.3903 29.3404 15.0446 29.2555 14.7382 29.0864C13.6642 28.4669 13.2922 26.6804 13.7429 24.3066C14.2399 22.0349 15.101 19.8586 16.2929 17.8619C17.411 15.8587 18.8423 14.0473 20.5327 12.4964C21.2776 11.8174 22.1368 11.2758 23.0707 10.8966C23.4085 10.7383 23.7769 10.6562 24.1499 10.6562C24.523 10.6562 24.8914 10.7383 25.2292 10.8966C26.3459 11.5401 26.7157 13.5111 26.1944 16.0409C25.6821 18.1893 24.8434 20.2464 23.7074 22.1406C22.6287 24.1201 21.2425 25.9157 19.6004 27.4604C18.8285 28.1659 17.9327 28.7226 16.9582 29.1021C16.5681 29.2469 16.1563 29.3247 15.7402 29.3324ZM17.0699 18.3074C15.933 20.2193 15.1077 22.3001 14.6249 24.4716C14.2102 26.6579 14.6084 27.9726 15.1874 28.3071C15.7874 28.6544 17.2439 28.3251 19.0124 26.7801C20.58 25.3003 21.9031 23.5815 22.9327 21.6876C24.0209 19.8767 24.8255 17.91 25.3184 15.8556C25.8089 13.4744 25.3852 12.0164 24.7837 11.6699C24.5583 11.5835 24.3173 11.5448 24.0762 11.5563C23.835 11.5678 23.5989 11.6292 23.3827 11.7366C22.5515 12.0796 21.7872 12.5666 21.1252 13.1751C19.5102 14.6607 18.143 16.3948 17.0752 18.3119L17.0699 18.3074Z" fill="black"/>
<path d="M24.2575 29.342C23.2413 29.342 21.9505 28.727 20.6065 27.5712C18.8866 26.0062 17.431 24.1733 16.2963 22.1435C15.1193 20.1743 14.265 18.0294 13.7658 15.7902C13.5493 14.8051 13.5092 13.7894 13.6473 12.7902C13.6792 12.4196 13.7921 12.0605 13.9779 11.7382C14.1637 11.4159 14.418 11.1383 14.7228 10.925C15.838 10.2792 17.7303 10.943 19.6615 12.6575C21.267 14.1741 22.6303 15.928 23.704 17.858C24.8803 19.7812 25.7435 21.8791 26.2615 24.0732C26.4874 25.0945 26.5222 26.1488 26.3643 27.1827C26.3267 27.564 26.2071 27.9327 26.0137 28.2635C25.8203 28.5942 25.5577 28.8792 25.2438 29.099C24.9424 29.266 24.602 29.3499 24.2575 29.342ZM17.0725 21.692C18.1611 23.6318 19.5515 25.386 21.1915 26.8887C22.8783 28.34 24.2163 28.652 24.7915 28.3137C25.3915 27.965 25.834 26.5415 25.378 24.2382C24.8784 22.1434 24.0505 20.1409 22.9248 18.305C21.9002 16.4578 20.5988 14.7784 19.066 13.325C17.248 11.711 15.7735 11.3502 15.1728 11.6982C14.9855 11.8504 14.8319 12.0397 14.7215 12.2543C14.6111 12.4688 14.5465 12.7039 14.5315 12.9447C14.4123 13.8358 14.4511 14.7409 14.6463 15.6185C15.1265 17.7598 15.9458 19.8107 17.0733 21.6935L17.0725 21.692Z" fill="black"/>
<defs>
<linearGradient id="paint0_linear_1001_721" x1="0" y1="0" x2="40" y2="40" gradientUnits="userSpaceOnUse">
<stop stop-color="#CFFAFE"/>
<stop offset="1" stop-color="#A5F3FC"/>
</linearGradient>
</defs>
</svg>
