<svg width="40" height="40" viewBox="0 0 40 40" fill="none" xmlns="http://www.w3.org/2000/svg">
<rect width="40" height="40" rx="20" fill="url(#paint0_linear_1001_749)"/>
<path d="M27.5824 21.1791C26.923 21.18 26.2723 21.3308 25.6797 21.6201C25.4941 21.3122 25.3508 20.9807 25.2537 20.6346C25.1979 20.3633 25.1849 20.0849 25.2154 19.8096C25.2795 19.5067 25.3627 19.2081 25.4644 18.9156C25.4607 18.8773 25.4187 18.6966 24.9964 18.6906C24.5742 18.6846 24.2104 18.7708 24.1714 18.8826C24.0981 19.0867 24.0392 19.2957 23.9952 19.5081C23.6457 20.3702 23.2156 21.1974 22.7104 21.9786C22.4274 21.5146 22.311 20.9681 22.3804 20.4291C22.4445 20.1262 22.5277 19.8276 22.6294 19.5351C22.6257 19.4968 22.5837 19.3161 22.1614 19.3101C21.7392 19.3041 21.3754 19.3903 21.3364 19.5021C21.2974 19.6138 21.2479 19.8771 21.1602 20.1276C21.0724 20.3781 20.0479 22.6671 19.7794 23.2573C19.6414 23.5573 19.5222 23.8018 19.4382 23.9668C19.4342 23.9776 19.4292 23.9879 19.4232 23.9976L19.3084 24.2166V24.2203C19.2507 24.3238 19.1892 24.4198 19.1584 24.4198C19.1048 24.2056 19.1074 23.9811 19.1659 23.7681C19.3159 22.9738 19.6834 21.7393 19.6797 21.6966C19.6797 21.6733 19.7487 21.4588 19.4419 21.3478C19.3708 21.314 19.2909 21.303 19.2133 21.3165C19.1356 21.3299 19.0641 21.3671 19.0084 21.4228C18.9814 21.4228 18.9627 21.4881 18.9627 21.4881C18.9627 21.4881 19.2964 20.0998 18.3259 20.0998C17.948 20.1759 17.5891 20.3267 17.2703 20.5435C16.9515 20.7602 16.6793 21.0386 16.4697 21.3621C16.2087 21.5038 15.6529 21.8068 15.0582 22.1331C14.8332 22.2598 14.5977 22.3866 14.3794 22.5081C14.3644 22.4931 14.3487 22.4736 14.3337 22.4586C13.1524 21.2001 10.9812 20.3121 11.0749 18.6283C11.1094 18.0148 11.3202 16.4038 15.2442 14.4471C18.4737 12.8556 21.0439 13.2966 21.4887 14.2746C22.1254 15.6711 20.1117 18.2638 16.7749 18.6396C16.4058 18.7145 16.0245 18.7054 15.6593 18.6131C15.2942 18.5208 14.9544 18.3476 14.6652 18.1063C14.4889 17.9143 14.4619 17.9031 14.3967 17.9413C14.2894 17.9991 14.3584 18.1716 14.3967 18.2713C14.524 18.5017 14.6961 18.7042 14.903 18.8669C15.1099 19.0296 15.3473 19.1492 15.6012 19.2186C16.9139 19.5023 18.2825 19.3666 19.5139 18.8308C21.5389 18.0486 23.1139 15.8736 22.6519 14.0518C22.1877 12.2031 19.1194 11.5933 16.2154 12.6268C14.3965 13.2389 12.7158 14.203 11.2692 15.4641C9.66943 16.9603 9.41668 18.2601 9.52018 18.8053C9.89518 20.7388 12.5584 21.9966 13.6242 22.9303C13.576 22.9577 13.5275 22.9845 13.4787 23.0106C12.9454 23.2753 10.9129 24.3381 10.4037 25.4616C9.82843 26.7366 10.4959 27.6478 10.9369 27.7708C11.6014 27.9299 12.299 27.8775 12.9323 27.621C13.5656 27.3644 14.103 26.9165 14.4694 26.3398C14.7815 25.8615 14.9733 25.3148 15.0285 24.7464C15.0838 24.1779 15.0008 23.6046 14.7867 23.0751C14.7831 23.0665 14.778 23.0587 14.7717 23.0518L15.1894 22.8066C15.4433 22.6565 15.7003 22.512 15.9604 22.3731C15.8043 22.8234 15.7126 23.2936 15.6882 23.7696C15.6352 24.4992 15.8584 25.222 16.3137 25.7946C16.383 25.8542 16.4634 25.8995 16.5503 25.9278C16.6372 25.9562 16.7288 25.967 16.8199 25.9596C17.2699 25.9596 17.4762 25.5846 17.7019 25.1391C17.9779 24.5946 18.2269 23.9616 18.2269 23.9616C18.2269 23.9616 17.9164 25.6723 18.7602 25.6723C19.0669 25.6723 19.3774 25.2733 19.5162 25.0723V25.0761L19.5394 25.0378L19.5889 24.9576V24.9501C19.7119 24.7356 19.9879 24.2481 20.3982 23.4388C20.9277 22.3956 21.4377 21.0913 21.4377 21.0913C21.4869 21.378 21.5548 21.6611 21.6409 21.9388C21.7645 22.2755 21.9105 22.6035 22.0782 22.9206C21.9552 23.0931 21.8787 23.1891 21.8787 23.1891L21.8824 23.1928C21.7827 23.3233 21.6754 23.4651 21.5562 23.6031C21.2014 23.9932 20.8722 24.4058 20.5707 24.8383C20.5259 24.911 20.5105 24.998 20.5276 25.0816C20.5448 25.1652 20.5932 25.2392 20.6629 25.2883C20.8208 25.3705 21.0008 25.4002 21.1767 25.3731C21.4418 25.3581 21.7024 25.2985 21.9477 25.1968C22.1847 25.1134 22.4083 24.996 22.6114 24.8481C22.8209 24.703 22.9894 24.5065 23.1009 24.2774C23.2125 24.0483 23.2632 23.7944 23.2482 23.5401C23.2246 23.2197 23.1428 22.9063 23.0067 22.6153C23.0449 22.5613 23.0817 22.5081 23.1177 22.4541C23.5441 21.8176 23.9284 21.154 24.2682 20.4673C24.3174 20.754 24.3853 21.0371 24.4714 21.3148C24.5733 21.6058 24.6987 21.888 24.8464 22.1586C24.3559 22.536 23.9695 23.0321 23.7237 23.6001C23.4822 24.2983 23.6697 24.6126 24.0237 24.6853C24.2174 24.6987 24.4111 24.659 24.5839 24.5706C24.8381 24.4871 25.0775 24.3641 25.2934 24.2061C25.5211 24.0717 25.7118 23.8829 25.8483 23.6565C25.9849 23.4302 26.063 23.1734 26.0757 22.9093C26.0587 22.6458 25.9991 22.3867 25.8994 22.1421C26.5468 21.8892 27.2486 21.8086 27.9364 21.9081C29.7619 22.1226 30.1227 23.2618 30.0537 23.7418C30.0213 23.912 29.9529 24.0733 29.853 24.2148C29.7532 24.3563 29.6242 24.4748 29.4747 24.5623C29.3479 24.6426 29.3059 24.6696 29.3172 24.7273C29.3322 24.8121 29.3922 24.8076 29.5009 24.7926C29.7761 24.7071 30.0188 24.5402 30.1972 24.3139C30.3755 24.0876 30.4811 23.8126 30.4999 23.5251C30.5577 22.4001 29.4837 21.1663 27.5847 21.1776L27.5824 21.1791ZM13.4974 25.9251C12.8914 26.5851 12.0477 26.8341 11.6832 26.6233C11.2917 26.3983 11.4454 25.4233 12.1894 24.7243C12.6308 24.3271 13.1078 23.9713 13.6144 23.6616C13.7029 23.6076 13.8334 23.5311 13.9894 23.4366L14.0314 23.4133L14.1237 23.3556C14.2566 23.8009 14.2687 24.2736 14.1586 24.7252C14.0485 25.1767 13.8204 25.5908 13.4974 25.9251ZM17.9082 22.9251C17.6974 23.4388 17.2564 24.7551 16.9879 24.6816C16.7577 24.6201 16.6129 23.6226 16.9422 22.6371C17.1084 22.1627 17.3506 21.7184 17.6592 21.3216C17.9892 20.9533 18.3537 20.8303 18.4414 20.9803C18.3614 21.6515 18.1816 22.307 17.9082 22.9251ZM21.5479 24.6666C21.4594 24.7123 21.3754 24.7416 21.3372 24.7206C21.3102 24.7056 21.3754 24.6456 21.3754 24.6456C21.3754 24.6456 21.8322 24.1543 22.0122 23.9323C22.1157 23.8018 22.2372 23.6488 22.3692 23.4756V23.5251C22.3692 24.1116 21.8014 24.5068 21.5487 24.6681L21.5479 24.6666ZM24.3559 24.0261C24.2907 23.9803 24.3019 23.8266 24.5209 23.3473C24.6732 23.0396 24.8859 22.7656 25.1464 22.5418C25.1864 22.6554 25.2071 22.7748 25.2079 22.8951C25.2109 23.1512 25.129 23.4012 24.975 23.6059C24.821 23.8106 24.6036 23.9586 24.3567 24.0268L24.3559 24.0261Z" fill="black"/>
<defs>
<linearGradient id="paint0_linear_1001_749" x1="0" y1="0" x2="40" y2="40" gradientUnits="userSpaceOnUse">
<stop stop-color="#FCE7F3"/>
<stop offset="1" stop-color="#F9A8D4"/>
</linearGradient>
</defs>
</svg>
