<svg width="40" height="40" viewBox="0 0 40 40" fill="none" xmlns="http://www.w3.org/2000/svg">
<rect width="40" height="40" rx="20" fill="url(#paint0_linear_1001_642)"/>
<path fill-rule="evenodd" clip-rule="evenodd" d="M23.785 9.64994C25.4196 9.99007 26.8694 10.9256 27.8527 12.2749C28.328 12.9166 28.6666 13.649 28.8475 14.4267C29.0285 15.2045 29.0481 16.0111 28.9049 16.7967C28.7658 17.549 28.4716 18.2642 28.0409 18.8967C28.6701 20.056 28.8819 21.3963 28.6409 22.6932C28.4947 23.4678 28.1865 24.2029 27.7366 24.8502C27.2867 25.4976 26.7052 26.0427 26.0302 26.4499L20.9917 29.5647C19.5512 30.4089 17.8483 30.6878 16.2138 30.3471C14.5792 30.0064 13.1295 29.0706 12.1462 27.7212C11.6716 27.0793 11.3335 26.347 11.1529 25.5694C10.9723 24.7918 10.953 23.9855 11.0962 23.2002C11.2353 22.4479 11.5292 21.7328 11.9594 21.1002C11.3317 19.9414 11.1199 18.6026 11.3594 17.3067C11.5054 16.5319 11.8134 15.7967 12.2633 15.1493C12.7133 14.5019 13.2949 13.9568 13.9702 13.5499L19.0079 10.4344C20.4479 9.5894 22.1505 9.30981 23.785 9.64994ZM16.1334 27.8677C16.8986 28.143 17.7288 28.1822 18.5165 27.9802H18.5218C18.8829 27.8876 19.2279 27.7407 19.5448 27.5444L24.575 24.4289C24.9802 24.1833 25.3291 23.8552 25.599 23.4658C25.8689 23.0765 26.0539 22.6347 26.1418 22.1692C26.2279 21.6969 26.2162 21.2119 26.1075 20.7443C25.9987 20.2766 25.7952 19.8363 25.5095 19.4504C25.0306 18.7923 24.3649 18.2932 23.599 18.0179C22.833 17.7425 22.0019 17.7036 21.2135 17.9062C20.8524 17.9987 20.5075 18.1456 20.1905 18.3419L18.269 19.5307C18.1728 19.5893 18.0684 19.6335 17.9593 19.6619C17.7217 19.7227 17.4713 19.7109 17.2405 19.6278C17.0097 19.5448 16.8092 19.3944 16.6648 19.1962C16.5794 19.0797 16.519 18.9468 16.4875 18.8058C16.456 18.6649 16.4541 18.5189 16.4818 18.3772C16.5083 18.2367 16.5641 18.1035 16.6457 17.9861C16.7272 17.8688 16.8327 17.77 16.955 17.6962L21.9965 14.5912C22.092 14.5319 22.196 14.4874 22.3048 14.4592C22.5424 14.3981 22.7928 14.4099 23.0235 14.4931C23.2543 14.5763 23.4547 14.727 23.5985 14.9257C23.7517 15.1352 23.8241 15.393 23.8025 15.6517L23.7838 15.8294L23.9675 15.8849C24.6736 16.0903 25.34 16.4133 25.9385 16.8404L26.1965 17.0182L26.2918 16.7369C26.3428 16.5876 26.3826 16.4347 26.411 16.2794C26.4967 15.8069 26.4845 15.3217 26.3751 14.8541C26.2657 14.3864 26.0615 13.9462 25.775 13.5607C25.2963 12.9022 24.6307 12.4029 23.8647 12.1275C23.0986 11.8521 22.2674 11.8134 21.479 12.0164C21.118 12.1093 20.7731 12.2562 20.456 12.4522L15.425 15.5677C15.0204 15.8133 14.6718 16.1411 14.4019 16.53C14.132 16.9189 13.9468 17.3602 13.8583 17.8252C13.7705 18.2972 13.7805 18.7823 13.8877 19.2503C13.9949 19.7184 14.197 20.1594 14.4815 20.5462C14.9602 21.2045 15.6257 21.7037 16.3916 21.9792C17.1575 22.2547 17.9885 22.2937 18.7768 22.0912C19.1378 21.998 19.4827 21.8509 19.7998 21.6547L21.7288 20.4667C21.8249 20.4075 21.9293 20.363 22.0385 20.3347C22.2762 20.2739 22.5267 20.2859 22.7575 20.3691C22.9882 20.4523 23.1888 20.6028 23.333 20.8012C23.4178 20.9178 23.4778 21.0506 23.5093 21.1913C23.5408 21.3321 23.5431 21.4778 23.516 21.6194C23.4889 21.7599 23.4326 21.8932 23.3509 22.0106C23.2691 22.128 23.1637 22.227 23.0413 22.3012L18.0163 25.4167C17.9206 25.4754 17.8167 25.5197 17.708 25.5479C17.4675 25.6108 17.2135 25.5988 16.9799 25.5136C16.7464 25.4283 16.5443 25.2739 16.4008 25.0709C16.2481 24.8612 16.176 24.6035 16.1975 24.3449L16.2163 24.1672L16.0325 24.1124C15.3267 23.9065 14.6605 23.5835 14.0615 23.1569L13.8035 22.9784L13.7083 23.2597C13.6574 23.4091 13.6176 23.562 13.589 23.7172C13.5033 24.1897 13.5155 24.6749 13.6249 25.1425C13.7343 25.6102 13.9386 26.0504 14.225 26.4359C14.7034 27.0935 15.3683 27.5923 16.1334 27.8677Z" fill="black"/>
<defs>
<linearGradient id="paint0_linear_1001_642" x1="0" y1="0" x2="40" y2="40" gradientUnits="userSpaceOnUse">
<stop stop-color="#FFEDD5"/>
<stop offset="1" stop-color="#FED7AA"/>
</linearGradient>
</defs>
</svg>
