<svg width="40" height="40" viewBox="0 0 40 40" fill="none" xmlns="http://www.w3.org/2000/svg">
<rect width="40" height="40" rx="20" fill="url(#paint0_linear_1001_711)"/>
<path d="M14.75 18.2752C15.45 15.4752 17.2 14.0752 20 14.0752C24.2 14.0752 24.725 17.2252 26.825 17.7502C28.225 18.1002 29.45 17.5752 30.5 16.1752C29.8 18.9752 28.05 20.3752 25.25 20.3752C21.05 20.3752 20.525 17.2252 18.425 16.7002C17.025 16.3502 15.8 16.8752 14.75 18.2752ZM9.5 24.5752C10.2 21.7752 11.95 20.3752 14.75 20.3752C18.95 20.3752 19.475 23.5252 21.575 24.0502C22.975 24.4002 24.2 23.8752 25.25 22.4752C24.55 25.2752 22.8 26.6752 20 26.6752C15.8 26.6752 15.275 23.5252 13.175 23.0002C11.775 22.6502 10.55 23.1752 9.5 24.5752Z" fill="black"/>
<defs>
<linearGradient id="paint0_linear_1001_711" x1="0" y1="0" x2="40" y2="40" gradientUnits="userSpaceOnUse">
<stop stop-color="#CCFBF1"/>
<stop offset="1" stop-color="#5EEAD4"/>
</linearGradient>
</defs>
</svg>
