<svg width="40" height="40" viewBox="0 0 40 40" fill="none" xmlns="http://www.w3.org/2000/svg">
<rect width="40" height="40" rx="20" fill="url(#paint0_linear_1006_1002)"/>
<path d="M24.7008 9.50299L17.4008 10.943C17.3433 10.956 17.2916 10.9875 17.2537 11.0326C17.2158 11.0778 17.1937 11.1341 17.1908 11.193L16.7408 18.763C16.7381 18.8049 16.7453 18.8469 16.7618 18.8856C16.7782 18.9243 16.8035 18.9585 16.8356 18.9857C16.8676 19.0129 16.9055 19.0323 16.9464 19.0422C16.9872 19.0521 17.0298 19.0524 17.0708 19.043L19.1008 18.573C19.1438 18.5642 19.1882 18.5661 19.2304 18.5784C19.2725 18.5907 19.311 18.6131 19.3425 18.6436C19.374 18.6742 19.3976 18.7119 19.4112 18.7536C19.4249 18.7953 19.4281 18.8397 19.4208 18.883L18.8208 21.843C18.8141 21.8876 18.8187 21.9331 18.8341 21.9755C18.8495 22.0178 18.8753 22.0557 18.9091 22.0855C18.9429 22.1153 18.9837 22.1362 19.0276 22.1463C19.0716 22.1563 19.1174 22.1552 19.1608 22.143L20.4108 21.773C20.4542 21.7608 20.4999 21.7597 20.5439 21.7697C20.5878 21.7798 20.6286 21.8006 20.6624 21.8305C20.6962 21.8603 20.722 21.8981 20.7374 21.9405C20.7529 21.9828 20.7575 22.0284 20.7508 22.073L19.7908 26.723C19.7308 27.013 20.1208 27.163 20.2908 26.923L20.3908 26.753L26.3308 14.893C26.3515 14.8484 26.3597 14.7989 26.3543 14.75C26.349 14.701 26.3304 14.6545 26.3006 14.6154C26.2707 14.5763 26.2307 14.546 26.1849 14.528C26.1391 14.5099 26.0893 14.5048 26.0408 14.513L23.9508 14.913C23.9062 14.9197 23.8606 14.9151 23.8183 14.8997C23.7759 14.8842 23.7381 14.8584 23.7083 14.8246C23.6784 14.7908 23.6575 14.7501 23.6475 14.7061C23.6375 14.6622 23.6386 14.6164 23.6508 14.573L25.0008 9.84299C25.0129 9.79958 25.0141 9.75381 25.004 9.70986C24.994 9.66591 24.9731 9.62517 24.9433 9.59136C24.9134 9.55756 24.8756 9.53176 24.8333 9.51632C24.7909 9.50088 24.7453 9.4963 24.7008 9.50299Z" fill="black"/>
<path fill-rule="evenodd" clip-rule="evenodd" d="M16.2865 12.9188L10.1315 11.8185C10.0312 11.8005 9.92793 11.8115 9.83369 11.8501C9.73945 11.8888 9.65819 11.9536 9.59946 12.0368C9.54072 12.12 9.50694 12.2183 9.50208 12.32C9.49721 12.4218 9.52147 12.5228 9.57201 12.6112L19.6235 30.2385C19.6705 30.321 19.7385 30.3895 19.8207 30.4371C19.9028 30.4847 19.9962 30.5095 20.0911 30.5092C20.186 30.5088 20.2792 30.4832 20.361 30.4349C20.4427 30.3867 20.5102 30.3176 20.5565 30.2347L30.413 12.6097C30.4624 12.521 30.4856 12.4194 30.4799 12.318C30.4742 12.2166 30.4397 12.119 30.3806 12.0364C30.3215 11.9539 30.2401 11.8899 30.146 11.8518C30.0519 11.8137 29.9489 11.8032 29.849 11.8215L25.0196 12.7018C24.8988 13.1225 24.7777 13.543 24.6564 13.9636L25.9067 13.7245C26.099 13.6918 26.2965 13.7124 26.478 13.7839C26.6594 13.8554 26.8179 13.9752 26.9362 14.1302C27.0546 14.2853 27.1282 14.4697 27.1493 14.6636C27.1704 14.8575 27.1381 15.0535 27.0559 15.2304L21.0937 27.1356L20.9629 27.358C20.6686 27.7735 20.1441 27.9563 19.6614 27.7664C19.2494 27.6044 18.8856 27.1489 19.007 26.5614L19.7851 22.7926L19.3767 22.9135C19.2047 22.9618 19.0233 22.9662 18.8491 22.9264C18.675 22.8866 18.5135 22.8038 18.3795 22.6856C18.2456 22.5673 18.1433 22.4175 18.0822 22.2496C18.0182 22.074 18.0047 21.8883 18.0324 21.7043L18.471 19.5401L17.2498 19.8228C17.0875 19.8602 16.9187 19.8591 16.7569 19.8197C16.5951 19.7803 16.4447 19.7037 16.3177 19.5959C16.1907 19.4882 16.0906 19.3523 16.0254 19.199C15.9604 19.0463 15.9318 18.8805 15.9419 18.7149L16.2865 12.9188Z" fill="black"/>
<defs>
<linearGradient id="paint0_linear_1006_1002" x1="0" y1="0" x2="40" y2="40" gradientUnits="userSpaceOnUse">
<stop stop-color="#EDE9FE"/>
<stop offset="1" stop-color="#DDD6FE"/>
</linearGradient>
</defs>
</svg>
