<svg width="40" height="40" viewBox="0 0 40 40" fill="none" xmlns="http://www.w3.org/2000/svg">
<rect width="40" height="40" rx="20" fill="url(#paint0_linear_1006_1002)"/>
<path d="M30.413 12.6097L20.5565 30.2347C20.5102 30.3176 20.4427 30.3867 20.361 30.4349C20.2792 30.4832 20.186 30.5088 20.0911 30.5092C19.9962 30.5095 19.9028 30.4847 19.8207 30.4371C19.7385 30.3895 19.6705 30.321 19.6235 30.2385L9.57201 12.6112C9.52147 12.5228 9.49721 12.4218 9.50208 12.32C9.50694 12.2183 9.54072 12.12 9.59946 12.0368C9.65819 11.9536 9.73945 11.8888 9.83369 11.8501C9.92793 11.8115 10.0312 11.8005 10.1315 11.8185L19.9985 13.5825C20.0613 13.5938 20.1255 13.5938 20.1883 13.5825L29.849 11.8215C29.9489 11.8032 30.0519 11.8137 30.146 11.8518C30.2401 11.8899 30.3215 11.9539 30.3806 12.0364C30.4397 12.119 30.4742 12.2166 30.4799 12.318C30.4856 12.4194 30.4624 12.521 30.413 12.6097Z" fill="black"/>
<path d="M20.6177 27.1332L20.6169 27.1345C20.2157 27.7522 19.2524 27.3604 19.4022 26.6354L20.3165 22.2129L19.2755 22.5292L20.6177 27.1332ZM20.6177 27.1332L20.725 26.9667L20.7367 26.9486M20.6177 27.1332L20.7367 26.9486M20.7367 26.9486L20.7463 26.9293M20.7367 26.9486L20.7463 26.9293M20.7463 26.9293L26.6901 15.068L26.6903 15.0675M20.7463 26.9293L26.6903 15.0675M26.6903 15.0675C26.746 14.956 26.7693 14.8312 26.7578 14.7072C26.7462 14.5832 26.7001 14.4648 26.6248 14.3656C26.5495 14.2664 26.448 14.1902 26.3316 14.1456C26.2153 14.1011 26.0888 14.09 25.9665 14.1136C25.9665 14.1136 25.9665 14.1136 25.9665 14.1136L24.0885 14.4754L25.392 9.95389L26.6903 15.0675ZM24.502 9.13578L24.6214 9.11219C24.7339 9.08995 24.8502 9.09706 24.9591 9.13281C25.0681 9.16857 25.166 9.23178 25.2434 9.31634C25.3208 9.40091 25.3752 9.50399 25.4012 9.61565C25.4271 9.72698 25.4241 9.84311 25.3923 9.9529L24.502 9.13578ZM24.502 9.13578L24.5016 9.13626M24.502 9.13578L24.5016 9.13626M24.5016 9.13626L17.3285 10.5415C17.3285 10.5415 17.3284 10.5415 17.3284 10.5415C17.3284 10.5415 17.3283 10.5415 17.3283 10.5416C17.1828 10.57 17.0509 10.6461 16.9534 10.7578C16.856 10.8695 16.7985 11.0103 16.7899 11.1583L16.7899 11.158L24.5016 9.13626ZM16.3414 18.7358L16.7899 11.1588L16.3414 18.7358ZM16.3414 18.7358C16.3414 18.7358 16.3414 18.7358 16.3414 18.7359M16.3414 18.7358L16.3414 18.7359M16.3414 18.7359C16.3414 18.7359 16.3414 18.7359 16.3414 18.736M16.3414 18.7359L16.3414 18.736M16.3414 18.736C16.3353 18.8396 16.3534 18.9432 16.3943 19.0386M16.3414 18.736L16.3943 19.0386M16.3943 19.0386C16.4352 19.1341 16.4978 19.2187 16.5772 19.2857M16.3943 19.0386L16.5772 19.2857M16.5772 19.2857C16.6565 19.3527 16.7504 19.4003 16.8514 19.4246M16.5772 19.2857L16.8514 19.4246M16.8514 19.4246C16.9522 19.449 17.0574 19.4495 17.1584 19.4261L16.8514 19.4246ZM17.1588 19.426L18.9883 19.0036L18.4263 21.7567C18.4263 21.7567 18.4263 21.7568 18.4263 21.7568C18.4031 21.8702 18.4098 21.9877 18.4457 22.0977C18.4816 22.2077 18.5455 22.3066 18.6312 22.3845C18.7168 22.4624 18.8213 22.5167 18.9342 22.542C19.047 22.5674 19.1644 22.563 19.275 22.5293L17.1588 19.426Z" fill="black" stroke="url(#paint1_linear_1006_1002)" stroke-width="0.8"/>
<defs>
<linearGradient id="paint0_linear_1006_1002" x1="0" y1="0" x2="40" y2="40" gradientUnits="userSpaceOnUse">
<stop stop-color="#EDE9FE"/>
<stop offset="1" stop-color="#DDD6FE"/>
</linearGradient>
<linearGradient id="paint1_linear_1006_1002" x1="-2.49535e-07" y1="1.19205e-06" x2="40" y2="40" gradientUnits="userSpaceOnUse">
<stop stop-color="#EDE9FE"/>
<stop offset="1" stop-color="#DDD6FE"/>
</linearGradient>
</defs>
</svg>
