<svg width="40" height="40" viewBox="0 0 40 40" fill="none" xmlns="http://www.w3.org/2000/svg">
<rect width="40" height="40" rx="20" fill="url(#paint0_linear_1041_647)"/>
<path d="M29.7574 11.7727L25.4329 9.69069C25.1887 9.57294 24.9139 9.53408 24.6466 9.5795C24.3793 9.62492 24.1328 9.75238 23.9411 9.94419L9.7849 22.8502C9.61314 23.006 9.51033 23.2237 9.49908 23.4554C9.48783 23.687 9.56906 23.9137 9.7249 24.0854C9.74365 24.1057 9.7624 24.1252 9.78265 24.1432L10.9384 25.1932C11.0894 25.3306 11.2838 25.4109 11.4878 25.4199C11.6918 25.4289 11.8926 25.3662 12.0551 25.2427L29.1064 12.3127C29.2352 12.215 29.3887 12.1551 29.5497 12.1399C29.7106 12.1247 29.8726 12.1547 30.0175 12.2266C30.1623 12.2984 30.2842 12.4093 30.3694 12.5467C30.4546 12.6841 30.4998 12.8425 30.4999 13.0042V12.9539C30.4999 12.7071 30.4302 12.4653 30.2988 12.2563C30.1675 12.0474 29.9798 11.8797 29.7574 11.7727Z" fill="black"/>
<path d="M29.7574 28.2276L25.4329 30.3104C25.1886 30.4278 24.9139 30.4665 24.6467 30.421C24.3795 30.3756 24.1329 30.2484 23.9411 30.0569L9.7849 17.1501C9.61314 16.9943 9.51033 16.7766 9.49908 16.5449C9.48783 16.3133 9.56906 16.0866 9.7249 15.9149C9.74365 15.8946 9.7624 15.8751 9.78265 15.8571L10.9384 14.8071C11.0896 14.6691 11.2844 14.5885 11.4889 14.5795C11.6934 14.5704 11.8946 14.6335 12.0574 14.7576L29.1064 27.6876C29.2352 27.7853 29.3887 27.8452 29.5497 27.8604C29.7106 27.8756 29.8726 27.8456 30.0175 27.7737C30.1623 27.7019 30.2842 27.591 30.3694 27.4536C30.4546 27.3162 30.4998 27.1578 30.4999 26.9961V27.0501C30.4991 27.2963 30.429 27.5372 30.2977 27.7455C30.1664 27.9537 29.9792 28.1208 29.7574 28.2276Z" fill="black"/>
<path d="M25.4332 30.3101C25.1889 30.4276 24.9142 30.4662 24.647 30.4208C24.3798 30.3754 24.1333 30.2482 23.9415 30.0566C24.0492 30.1629 24.1859 30.2351 24.3344 30.264C24.4829 30.293 24.6367 30.2775 24.7764 30.2194C24.9162 30.1614 25.0357 30.0633 25.12 29.9377C25.2042 29.812 25.2496 29.6642 25.2502 29.5129V10.4869C25.2504 10.3349 25.2054 10.1862 25.1209 10.0598C25.0365 9.93334 24.9164 9.8348 24.776 9.77665C24.6355 9.7185 24.4809 9.70336 24.3318 9.73313C24.1827 9.7629 24.0458 9.83625 23.9385 9.94389C24.1301 9.75215 24.3766 9.62469 24.6439 9.57914C24.9111 9.53359 25.1859 9.57221 25.4302 9.68964L29.754 11.7686C29.9771 11.8751 30.1655 12.0426 30.2976 12.2516C30.4296 12.4606 30.4999 12.7027 30.5002 12.9499V27.0499C30.5003 27.2969 30.4305 27.5389 30.299 27.7481C30.1676 27.9572 29.9796 28.1249 29.757 28.2319L25.4332 30.3101Z" fill="black"/>
<defs>
<linearGradient id="paint0_linear_1041_647" x1="0" y1="0" x2="40" y2="40" gradientUnits="userSpaceOnUse">
<stop stop-color="#E0F2FE"/>
<stop offset="1" stop-color="#BAE6FD"/>
</linearGradient>
</defs>
</svg>
